<?xml version="1.0" standalone="no"?>
<!DOCTYPE svg PUBLIC "-//W3C//DTD SVG 1.1//EN" "http://www.w3.org/Graphics/SVG/1.1/DTD/svg11.dtd" >
<!--
2013-9-30: Created.
-->
<svg>
<metadata>
Created by iconfont
</metadata>
<defs>

<font id="iconfont" horiz-adv-x="1024" >
  <font-face
    font-family="iconfont"
    font-weight="500"
    font-stretch="normal"
    units-per-em="1024"
    ascent="896"
    descent="-128"
  />
    <missing-glyph />
    
    <glyph glyph-name="wenhao" unicode="&#59007;" d="M510.827 819.958c247.096-0.028 448.767-201.816 448.28-448.542-0.49-247.641-201.839-448.844-448.57-448.241-247.462 0.604-447.696 200.956-448.024 448.289-0.328 246.882 201.23 448.521 448.315 448.494zM916.775 371.635c-0.036 223.591-181.117 405.318-405.726 405.779-223.891 0.458-405.925-181.253-406.159-405.791-0.233-223.613 181.449-405.166 405.673-405.804 223.336-0.636 406.247 182.097 406.212 405.817zM535.795 226.7c-19.143 0-37.775 0-56.939 0 0 11.373-0.608 22.537 0.128 33.613 1.485 22.364 6.658 43.815 18.344 63.301 9.094 15.164 20.675 28.25 33.541 40.276 15.979 14.935 32.148 29.678 47.81 44.94 9.222 8.986 17.419 19.009 21.68 31.483 10.207 29.884 3.682 56.569-16.199 80.337-33.016 39.47-88.236 40.822-122.051 21.067-21.313-12.451-34.092-31.502-41.552-54.414-3.344-10.272-5.654-20.881-8.651-32.155-19.652 2.333-39.767 4.722-60.636 7.199 0.779 5.206 1.336 10.1 2.263 14.924 5.196 27.06 14.589 52.297 32.254 73.943 21.519 26.37 49.555 41.723 82.58 48.062 34.471 6.616 68.92 5.901 102.442-4.987 42.921-13.939 74.68-41.177 89.113-84.564 13.857-41.655 7.049-81.004-20.227-116.155-17.302-22.299-38.82-40.415-59.042-59.832-8.896-8.542-17.896-17.136-25.623-26.696-11.477-14.198-15.858-31.37-17.242-49.325-0.782-10.137-1.313-20.294-1.992-31.014zM475.158 106.26c0 22.494 0 44.772 0 67.411 22.538 0 44.811 0 67.458 0 0-22.426 0-44.709 0-67.411-22.407 0-44.809 0-67.458 0z"  horiz-adv-x="1024" />

    
    <glyph glyph-name="lajitong" unicode="&#58914;" d="M337.984 102.976c-16.064 0-28.992 12.608-28.992 28.096L308.992 440.192c0 15.552 12.992 28.096 28.992 28.096 16.064 0 28.992-12.608 28.992-28.096l0-309.056C366.976 115.584 353.984 102.976 337.984 102.976L337.984 102.976zM512 102.976c-16.064 0-28.992 12.608-28.992 28.096L483.008 440.192c0 15.552 12.992 28.096 28.992 28.096 16.064 0 28.992-12.608 28.992-28.096l0-309.056C540.992 115.584 528.064 102.976 512 102.976L512 102.976zM686.016 102.976c-16.064 0-28.992 12.608-28.992 28.096L657.024 440.192c0 15.552 12.992 28.096 28.992 28.096 16.064 0 28.992-12.608 28.992-28.096l0-309.056C715.072 115.584 702.08 102.976 686.016 102.976L686.016 102.976zM918.08 608.832l0-28.096-58.048 0 0-533.952c0-61.952-52.032-112.384-116.032-112.384L279.936-65.6c-64 0-116.032 50.432-116.032 112.384L163.904 580.736 105.92 580.736 105.92 608.832 76.864 608.832 76.864 636.928c0 61.952 52.032 112.384 116.032 112.384l120.128 0C326.016 797.696 371.072 833.6 424.96 833.6L599.04 833.6c53.888 0 98.944-35.904 111.936-84.288l120.128 0c64 0 116.032-50.432 116.032-112.384l0-28.096L918.08 608.832 918.08 608.832zM279.936-9.408l464.128 0c32 0 57.984 25.216 57.984 56.192L802.048 580.736 221.952 580.736l-4.032-533.952C217.92 15.808 248-9.408 279.936-9.408L279.936-9.408zM599.04 777.408 424.96 777.408c-21.376 0-39.872-11.392-49.92-28.096l273.92 0C638.912 766.016 620.416 777.408 599.04 777.408L599.04 777.408zM831.104 693.12 192.896 693.12c-32 0-57.984-25.216-57.984-56.192l69.12 0 145.024 0 325.888 0 145.024 0 69.12 0C889.088 667.904 863.04 693.12 831.104 693.12L831.104 693.12z"  horiz-adv-x="1024" />

    
    <glyph glyph-name="wxbbaobiao" unicode="&#58904;" d="M941.590594-0.266827 125.566322-0.266827 125.566322 815.822936c0 12.017708-9.710153 21.665439-21.664416 21.665439-11.997242 0-21.665439-9.648754-21.665439-21.665439l0-837.751109c0-11.932774 9.66922-21.666462 21.665439-21.666462l837.688687 0c11.974729 0 21.666462 9.733689 21.666462 21.666462C963.257056-9.912511 953.566346-0.266827 941.590594-0.266827M204.97079 191.16818c6.368034 0 12.695137 2.792603 16.989953 8.207939L387.391493 407.821545l204.846458-204.889437c4.487198-4.486174 10.749832-6.941086 16.926508-6.347568 6.262634 0.50756 12.017708 3.640923 15.741519 8.632611l258.204713 344.868515c7.193843 9.56382 5.248537 23.104207-4.358261 30.29805-9.562796 7.193843-23.146163 5.246491-30.336936-4.315282L605.270778 251.255697 400.889925 455.638597c-4.40124 4.315282-10.156314 6.770194-16.587793 6.262634-6.1777-0.338714-11.932774-3.302209-15.741519-8.125051L188.024839 226.290095c-7.448646-9.309016-5.882987-23.019273 3.469008-30.464849C195.534883 192.692906 200.252325 191.16818 204.97079 191.16818"  horiz-adv-x="1024" />

    
    <glyph glyph-name="xiangqu" unicode="&#58956;" d="M512-26.110425c-0.002047 0-0.004093 0-0.00614 0-5.574972 0.002047-10.916631 2.229784-14.84101 6.186909L370.833887 107.469919c-1.613754 1.622964-164.173107 165.007101-187.469696 188.304713C114.596991 364.540809 74.209142 441.7114 66.567092 518.942365c-7.609305 76.902484 18.981307 150.036132 74.874291 205.929116 54.793954 54.79293 121.562637 77.752852 193.072297 66.412572 59.33027-9.41237 120.361275-42.176588 177.48632-95.104031 57.122999 52.92642 118.155027 85.690638 177.485297 95.104031 71.513754 11.351536 138.279367-11.616572 193.072297-66.412572 55.891961-55.892985 82.482573-129.026632 74.874291-205.929116-7.643074-77.230965-48.0299-154.400532-116.7971-223.167732-50.870598-50.868551-311.172065-313.063135-313.795822-315.705312C522.914584-23.886781 517.572926-26.110425 512-26.110425zM298.928207 752.320647c-47.080272 0-89.998757-19.104103-127.914298-57.020668-47.547923-47.547923-69.27476-107.107413-62.829977-172.238806 6.67912-67.496254 42.902112-135.863341 104.751762-197.714014 23.334451-23.334451 185.92962-186.758498 187.568956-188.406021l111.505583-112.451118c56.269561 56.671721 255.224846 257.029958 299.05305 300.858162 61.850673 61.850673 98.073666 130.216737 104.750739 197.714014 6.446829 65.131393-15.280008 124.690884-62.828954 172.238806-45.573965 45.574988-98.377588 63.974034-156.947542 54.680367-55.707766-8.838296-114.234741-42.590004-169.251775-97.609085-3.922333-3.921309-9.240455-6.125511-14.785751-6.125511s-10.863419 2.203178-14.785751 6.124488c-55.020104 55.020104-113.546056 88.772836-169.252799 97.610108C318.119291 751.541911 308.437791 752.320647 298.928207 752.320647z"  horiz-adv-x="1024" />

    
    <glyph glyph-name="dizhi" unicode="&#58962;" d="M511.998977 830.709995c-173.638689 0-314.904063-138.294716-314.904063-308.281225 0-77.603449 31.020504-185.005574 85.10633-294.67023 53.746088-108.971877 124.852566-209.287607 195.185424-275.377838 8.955976-9.602705 21.51092-15.08865 34.612309-15.08865 12.913101 0 25.359574 5.358031 34.296107 14.736633 149.549038 140.014894 280.608979 406.358985 280.608979 570.401108C826.904063 692.415278 685.637666 830.709995 511.998977 830.709995zM517.467525-18.127613l-1.128707-1.13894c-0.816598-0.8913-2.232854-1.952468-4.339842-1.952468-2.245134 0-3.695159 1.251503-4.361331 1.997494l-1.294482 1.327228C366.207519 113.420445 238.584863 370.958986 238.584863 522.427746c0 147.109476 122.652458 266.791276 273.414113 266.791276 150.761656 0 273.415137-119.6818 273.415137-266.791276C785.414113 370.516918 657.700383 112.869906 517.467525-18.127613zM513.044796 714.383616c-91.091648 0-165.199483-74.112951-165.199483-165.210739 0-91.076298 74.107835-165.172877 165.199483-165.172877 91.083461 0 165.184133 74.096579 165.184133 165.172877C678.228929 640.270664 604.128257 714.383616 513.044796 714.383616zM513.044796 425.48995c-68.213591 0-123.709533 55.484685-123.709533 123.682927 0 68.219731 55.495942 123.720789 123.709533 123.720789 68.205405 0 123.694183-55.501058 123.694183-123.720789C636.738979 480.974635 581.2502 425.48995 513.044796 425.48995z"  horiz-adv-x="1024" />

    
    <glyph glyph-name="shezhi" unicode="&#59023;" d="M545.784454-66.539206l-65.943898 0c-29.341259 0-54.624085 25.281803-54.624085 54.615898L425.216471 27.537426c0 9.623171-7.826246 20.911262-16.690124 23.680329l-1.566682 0.611937-55.725162 23.104207-0.880043 0.494257c-8.153704 4.41045-22.017456 2.376117-28.55229-4.187369l-28.17469-28.123524c-9.930163-9.977235-23.239284-15.494902-37.432541-15.494902-14.195304 0-27.507494 5.517667-37.487799 15.541975l-46.682205 46.630017c-20.60427 20.603247-20.6319 54.233182-0.069585 74.974575l28.15013 28.106128c6.637164 6.574742 8.676613 20.599154 4.253884 28.909423l-0.831948 1.768273-23.164582 56.128345-0.26913 0.682545c-2.803859 9.03477-14.279215 17.394159-23.611767 17.394159l-39.631626 0c-29.391401 0-52.861952 24.065092-52.861952 53.193503l0 65.943898c0 28.770254 22.998807 51.754734 52.919257 51.754734l39.575344 0c9.081843 0 20.803815 8.830109 23.666002 18.057261l0.567935 1.476631 23.163559 57.088206 0.505513 0.913812c4.40431 8.220219 2.319835 22.224164-4.2897 28.830629l-28.04166 28.087709c-9.964956 9.921977-15.486716 23.216771-15.502066 37.396725-0.01535 14.201443 5.492084 27.53717 15.507182 37.552268l46.6556 46.614667c9.94142 9.985422 23.248494 15.503089 37.432541 15.503089 0.001023 0 0 0 0.001023 0 14.184047 0 27.490098-5.51869 37.46938-15.540951l28.039613-28.05087c6.557346-6.525624 20.500916-8.596795 28.655643-4.231371l0.893346 0.478907 57.375755 23.64963c8.836249 2.731204 16.634866 14.037714 16.634866 23.719214l0 39.632649c0 28.967752 24.777313 52.095495 54.624085 52.095495L545.784454 831.923636c29.161157 0 52.370765-22.636556 52.370765-52.095495l0-39.632649c0-9.127891 8.709359-20.85498 17.767666-23.674189l1.51654-0.577145 56.639998-23.113417 0.923022-0.509606c8.202822-4.424776 22.184255-2.353604 28.788673 4.254907l28.163433 27.912723c9.895371 9.94142 23.179932 15.33936 37.352723 15.33936 0.019443 0 0.040932 0 0.060375 0 14.18814 0 27.508517-5.375427 37.516452-15.384385l46.709835-46.554292c10.004865-9.960863 15.524578-23.254633 15.524578-37.47552 0-14.18814-5.498224-27.506471-15.479553-37.532825l-28.16855-28.152177c-6.580882-6.610558-8.640798-20.771069-4.204765-29.107945l0.478907-0.896416 23.654746-57.956993c2.902096-9.255805 14.635325-18.114566 23.686469-18.114566l39.132252 0 0 0.573051c27.629267 0 52.188616-22.984481 52.188616-52.327786l0-65.998133c0-29.590945-22.985504-53.138244-51.746548-53.138244l-39.630602 0c-9.337669 0-20.84884-8.372691-23.686469-17.423835l-0.580215-1.51654-23.086811-56.240909-0.468674-0.860601c-4.419659-8.30413-2.393513-22.320355 4.169973-28.855188l28.135804-28.02017c10.031471-10.029424 15.539928-23.350824 15.537881-37.541011-0.004093-14.186094-5.514597-27.505447-15.518438-37.505195l-46.747697-46.682205c-9.920954-9.964956-23.219841-15.506159-37.406958-15.506159-0.019443 0-0.040932 0-0.060375 0-14.192234 0-27.514657 5.514597-37.518498 15.517415l-28.039613 28.095895c-6.490831 6.490831-20.807908 8.575306-28.887934 4.206812l-0.951675-0.514723-57.93755-23.680329c-9.087982-2.859118-17.823947-14.594393-17.823947-23.691585l0-39.460734C598.155219-41.76394 574.45954-66.539206 545.784454-66.539206zM421.86719 89.107713c25.192775-8.370645 44.282552-34.650171 44.282552-61.570287l0-39.460734c0-7.114025 6.569626-13.68365 13.691837-13.68365L545.784454-25.606958c6.496971 0 12.461823 6.043646 12.461823 13.68365L558.246277 27.537426c0 26.273387 19.516496 53.131081 44.901653 61.58052l53.859675 22.062482c23.62814 12.116969 56.342216 7.098675 75.118861-11.6749l28.009937-28.1532c2.432399-2.430352 5.678326-3.837398 9.179057-3.837398 0.00614 0 0.011256 0 0.01535 0 3.482311 0 6.726192 1.39886 9.135054 3.820002l46.780443 46.738487c2.436492 2.436492 3.783163 5.724375 3.78521 9.224082 0 3.495614-1.344624 6.774287-3.787256 9.216919l-28.106128 27.998681c-18.693758 18.609847-23.762193 51.349505-11.773138 75.036997l22.083971 53.603849c8.374738 25.167193 35.224246 44.51382 61.578474 44.51382l39.630602 0c7.745405 0 10.8143 7.086395 10.8143 13.229303l0 65.998133c0 6.862291-5.116531 12.07399-11.256368 12.302187l0-1.479701-39.132252 0c-26.236548 0-53.099359 20.149922-61.585637 45.735647l-22.083971 54.261834c-11.960403 23.654746-6.913457 56.502875 11.728112 75.228355l28.16855 28.192086c2.430352 2.441609 3.78828 5.764284 3.78828 9.295714 0 3.498684-1.334391 6.762007-3.759627 9.17394l-46.741557 46.577828c-2.462075 2.462075-5.736655 3.734044-9.234315 3.734044-0.004093 0-0.010233 0-0.013303 0-3.465938 0-6.700609-1.255597-9.105379-3.671623l-28.198226-28.037567c-18.703991-18.710131-51.417043-23.734564-75.000158-11.69025l-53.865815 22.072715c-25.403576 8.388041-44.934398 35.255968-44.934398 61.60508l0 39.632649c0 7.253194-5.517667 12.186554-12.461823 12.186554l-65.943898 0c-7.517207 0-13.691837-5.51869-13.691837-12.186554l0-39.632649c0-27.027563-19.107173-53.336766-44.325531-61.643965l-53.501518-21.99699c-23.834848-12.168134-55.857169-7.234775-74.878384 11.69639l-28.130687 28.115338c-2.441609 2.451842-5.690606 3.787256-9.152451 3.787256-3.462868 0.001023-6.704702-1.334391-9.117658-3.758604l-46.690392-46.64639c-2.438539-2.438539-3.784186-5.710049-3.781116-9.207709 0.004093-3.474125 1.339508-6.716982 3.762697-9.128915l28.068266-28.121478c18.698874-18.690688 23.782659-51.389414 11.808954-74.973552l-22.124903-54.813397c-8.413624-25.616424-35.281551-45.783743-61.603033-45.783743l-39.575344 0c-6.630001 0-13.010315-3.411703-13.010315-10.822486l0-65.943898c0-6.942109 5.753027-13.284561 12.95301-13.284561l39.631626 0c26.380834 0 53.195549-19.35072 61.524239-44.537356l22.182208-53.629431c12.027941-23.731494 6.918573-56.449663-11.863189-75.05644l-28.022217-27.949562c-5.021364-5.066389-5.048993-13.348006 0.010233-18.409279l46.713928-46.653553c2.452865-2.464121 5.695722-3.794419 9.168824-3.794419 3.472078 0 6.711865 1.336438 9.124821 3.759627l28.181853 28.122501c18.641569 18.730597 51.440579 23.752983 75.011414 11.642155L421.86719 89.107713zM513.734504 164.119127c-120.639614 0-218.786958 98.147344-218.786958 218.786958s98.147344 218.786958 218.786958 218.786958 218.786958-98.147344 218.786958-218.786958S634.375142 164.119127 513.734504 164.119127zM513.734504 561.675632c-98.573039 0-178.769546-80.195483-178.769546-178.769546s80.195483-178.769546 178.769546-178.769546 178.769546 80.195483 178.769546 178.769546S612.308567 561.675632 513.734504 561.675632z"  horiz-adv-x="1024" />

    
    <glyph glyph-name="zhongzhuan" unicode="&#59035;" d="M659.750065 550.494988l208.611202 0-136.581702-81.603553c-9.486048-5.66707-12.580526-17.950837-6.91448-27.436886 3.747347-6.27082 10.384511-9.749038 17.195637-9.749038 3.491521 0 7.028067 0.914836 10.242272 2.835581l198.816115 118.786407c6.045693 3.611248 9.745968 10.134825 9.745968 17.175171 0 7.040347-3.700275 13.563924-9.745968 17.175171l-198.816115 118.785384c-9.490142 5.669116-21.769816 2.572592-27.437909-6.913457-5.666046-9.486048-2.571568-21.769816 6.91448-27.436886l136.581702-81.602529L659.750065 590.510354c-114.183576 0-207.078289-92.895737-207.078289-207.080336 0-92.119047-74.944899-167.063947-167.063947-167.063947L84.531232 216.366072c-11.04966 0-20.007683-8.958022-20.007683-20.007683s8.958022-20.007683 20.007683-20.007683l201.076598 0c114.184599 0 207.079312 92.894713 207.079312 207.079312C492.687142 475.550089 567.631018 550.494988 659.750065 550.494988zM84.531232 550.494988l201.076598 0c39.496549 0 77.818343-14.034645 107.906615-39.520085 3.76065-3.183506 8.352225-4.739954 12.922311-4.739954 5.678326 0 11.319813 2.403746 15.276938 7.076162 7.141654 8.432043 6.094812 21.056572-2.336208 28.199249-37.306674 31.597649-84.813664 48.999994-133.769656 48.999994L84.531232 590.510354c-11.04966 0-20.007683-8.958022-20.007683-20.007683C64.523549 559.451988 73.481571 550.494988 84.531232 550.494988zM951.119109 213.532537 752.302995 332.322014c-9.490142 5.666046-21.769816 2.571568-27.437909-6.91448-5.666046-9.486048-2.571568-21.769816 6.91448-27.437909l136.581702-81.603553L659.750065 216.366072c-40.956807 0-80.354096 14.966876-110.932532 42.144866-8.256034 7.339152-20.903076 6.596232-28.246321-1.662873-7.340175-8.259104-6.596232-20.906146 1.663896-28.247344 37.910425-33.694403 86.74669-52.250014 137.514957-52.250014l208.610178 0-136.580678-81.601506c-9.486048-5.668093-12.580526-17.951861-6.91448-27.437909 3.747347-6.269797 10.384511-9.750061 17.195637-9.750061 3.491521 0 7.028067 0.914836 10.242272 2.835581l198.816115 118.785384c6.045693 3.612271 9.745968 10.134825 9.745968 17.176195C960.865077 203.399759 957.163779 209.922313 951.119109 213.532537z"  horiz-adv-x="1024" />

    
    <glyph glyph-name="jianqujianhaowubiankuang" unicode="&#59374;" d="M864 448l-768 0C78.08 448 64 433.92 64 416 64 398.08 78.08 384 96 384l768 0C881.92 384 896 398.08 896 416 896 433.92 881.92 448 864 448z"  horiz-adv-x="1024" />

    
    <glyph glyph-name="yuandianxiao" unicode="&#59439;" d="M480 416m-160 0a2.5 2.5 0 1 0 320 0 2.5 2.5 0 1 0-320 0Z"  horiz-adv-x="1024" />

    
    <glyph glyph-name="iconfontyiqiyibiao" unicode="&#58950;" d="M511.801 896c-0.106 0-0.211-0.002-0.317-0.002l-0.006 0.002-21 0 0-254.583 86.652 0-1.024 185.359c216.507-31.177 382.885-217.431 382.885-442.575 0-246.988-200.216-447.204-447.191-447.204s-447.185 200.216-447.185 447.204c0 125.359 51.579 238.663 134.671 319.855l-40.9 50.325c-97.589-93.196-158.386-224.589-158.386-370.18 0-282.654 229.145-511.805 511.799-511.805 282.66 0 511.799 229.151 511.799 511.805S794.461 896 511.801 896zM561.846 439.558c-6.358 5.75-13.716 10.41-21.775 13.712l-262.84 165.513 165.514-262.9c3.29-8.015 7.925-15.333 13.639-21.665l2.107-3.347 0.547 0.547c13.505-13.5 32.159-21.85 52.764-21.85 41.219 0 74.633 33.414 74.633 74.633 0 20.603-8.351 39.257-21.853 52.761l0.536 0.536L561.846 439.558z"  horiz-adv-x="1025" />

    
    <glyph glyph-name="jiantou2" unicode="&#58968;" d="M106.951359 419.999912c23.394826 0 42.358737-18.96391 42.358737-42.35976 0-23.390733-18.96391-42.357713-42.358737-42.357713s-42.358737 18.96698-42.358737 42.357713C64.592622 401.036002 83.556533 419.999912 106.951359 419.999912zM274.258852 419.999912c23.394826 0 42.35976-18.96391 42.35976-42.35976 0-23.390733-18.964934-42.357713-42.35976-42.357713s-42.358737 18.96698-42.358737 42.357713C231.900116 401.036002 250.864026 419.999912 274.258852 419.999912zM441.566346 419.999912c23.394826 0 42.358737-18.96391 42.358737-42.35976 0-23.390733-18.96391-42.357713-42.358737-42.357713s-42.35976 18.96698-42.35976 42.357713C399.207609 401.036002 418.17152 419.999912 441.566346 419.999912zM608.874863 419.999912c23.393803 0 42.35976-18.96391 42.35976-42.35976 0-23.390733-18.964934-42.357713-42.35976-42.357713s-42.35976 18.96698-42.35976 42.357713C566.515103 401.036002 585.480037 419.999912 608.874863 419.999912zM952.288237 406.721491 688.470689 670.540062c-12.095479 12.089339-35.304064 8.487302-51.842739-8.057513-16.537651-16.538675-20.148899-39.753399-8.05649-51.845809l226.63981-226.641857L628.5776 157.358143c-12.092409-12.087293-8.481162-35.310204 8.05649-51.839669 16.538675-16.540721 39.747259-20.146852 51.842739-8.065699l263.817548 263.820618c5.715165 5.708002 7.880481 13.919011 6.875594 22.721491C960.168718 392.798387 958.003402 401.001209 952.288237 406.721491z"  horiz-adv-x="1024" />

    
    <glyph glyph-name="arrowdown" unicode="&#59026;" d="M84.883165 618.269058c-0.108532-6.288704 2.1819-12.616315 6.896892-17.497176l386.129681-399.638824c25.107716-25.985186 66.674388-26.700882 92.661622-1.594189 0.125938 0.121842 0.250852 0.244709 0.374742 0.369623l397.182524 400.527557c9.555922 9.636809 9.491417 25.19577-0.146416 34.751692-9.636809 9.555922-25.196794 9.490393-34.752716-0.146416L536.272226 234.741069c-3.12797-2.94879-7.209177-4.529669-11.515638-4.455949-4.375062 0.074744-8.459341 1.850161-11.50028 4.99656L127.126626 634.921529c-9.431008 9.759675-24.986897 10.026909-34.747596 0.597949C87.499192 630.804486 84.991697 624.556738 84.883165 618.269058z"  horiz-adv-x="1025" />

    
    <glyph glyph-name="arrowleft" unicode="&#59027;" d="M708.383253-61.296943c-6.289728 0-12.576383 2.398963-17.376358 7.19689l-392.936471 392.937495c-25.550034 25.550034-25.550034 67.121826 0 92.671861 0.12389 0.12389 0.249828 0.246756 0.375766 0.367575l407.301582 390.221127c9.799606 9.388005 25.355496 9.056266 34.744525-0.744365s9.056266-25.355496-0.744365-34.744525L332.676724 396.610172c-3.002032-3.076775-4.652535-7.130337-4.652535-11.436799 0-4.375062 1.704769-8.490057 4.798951-11.583215l392.936471-392.936471c9.595853-9.596877 9.595853-25.154815 0-34.751692C720.961684-58.896956 714.670933-61.296943 708.383253-61.296943z"  horiz-adv-x="1025" />

    
    <glyph glyph-name="arrowright" unicode="&#59028;" d="M317.847-61.297c6.29 0 12.576 2.399 17.376 7.197l392.936 392.937c25.55 25.55 25.55 67.122 0 92.672-0.124 0.124-0.25 0.247-0.376 0.368l-407.302 390.221c-9.8 9.388-25.355 9.056-34.745-0.744s-9.056-25.355 0.744-34.745l407.071-390c3.002-3.077 4.653-7.13 4.653-11.437 0-4.375-1.705-8.49-4.799-11.583l-392.936-392.936c-9.596-9.597-9.596-25.155 0-34.752 4.798-4.798 11.089-7.198 17.376-7.198z"  horiz-adv-x="1025" />

    
    <glyph glyph-name="arrowup" unicode="&#59029;" d="M84.883165 205.317676c-0.108532 6.288704 2.1819 12.616315 6.896892 17.497176l386.129681 399.638824c25.107716 25.985186 66.674388 26.700882 92.661622 1.594189 0.125938-0.121842 0.250852-0.244709 0.374742-0.369623l397.182524-400.527557c9.555922-9.636809 9.491417-25.19577-0.146416-34.751692-9.636809-9.555922-25.196794-9.490393-34.752716 0.146416L536.272226 588.845665c-3.12797 2.94879-7.209177 4.529669-11.515638 4.455949-4.375062-0.075768-8.459341-1.850161-11.50028-4.99656L127.126626 188.665205c-9.431008-9.759675-24.986897-10.026909-34.747596-0.597949C87.499192 192.782248 84.991697 199.029997 84.883165 205.317676zM970.115987 644.467212"  horiz-adv-x="1025" />

    
    <glyph glyph-name="favorite" unicode="&#59030;" d="M231.906954-58.876478a24.575296 24.575296 0 0 0-24.341849 27.960261l39.91105 286.861951L45.333547 468.0702a24.573248 24.573248 0 0 0 13.542931 41.156095l284.33705 49.883693 139.747036 257.036172a24.572224 24.572224 0 0 0 21.506712 12.835426h0.08191a24.573248 24.573248 0 0 0 21.509783-12.692082L670.865023 554.142096l281.573584-44.85232a24.573248 24.573248 0 0 0 13.614603-41.539028L759.184347 258.388724l42.312061-281.246964a24.576319 24.576319 0 0 0-9.513942-23.282128 24.577343 24.577343 0 0 0-25.00328-2.721487L504.867615 70.961396l-262.227271-127.367239a24.538436 24.538436 0 0 0-10.73339-2.470635zM112.575168 468.749036l178.664917-187.487737a24.5712 24.5712 0 0 0 6.548771-20.338458L262.588702 7.918729l231.225047 112.308957a24.570176 24.570176 0 0 0 20.952789 0.244709l231.37863-105.773497-37.393316 248.549186a24.575296 24.575296 0 0 0 6.8201 20.926168l181.908586 184.101749-246.191178 39.21788a24.568128 24.568128 0 0 0-17.643592 12.38594L504.721199 753.276529 380.727663 525.217336a24.572224 24.572224 0 0 0-17.34257-12.465804l-250.809925-44.002496z"  horiz-adv-x="1024" />

    
    <glyph glyph-name="add" unicode="&#59065;" d="M895.531061 410.211464 535.640488 410.211464 535.640488 770.102037c0 13.5716-11.001648 24.573248-24.573248 24.573248s-24.573248-11.001648-24.573248-24.573248l0-359.890572L126.604444 410.211464c-13.5716 0-24.573248-11.001648-24.573248-24.573248s11.001648-24.573248 24.573248-24.573248l359.889548 0 0-359.890572c0-13.5716 11.001648-24.573248 24.573248-24.573248s24.573248 11.001648 24.573248 24.573248L535.640488 361.065993l359.890572 0c13.5716 0 24.573248 11.001648 24.573248 24.573248S909.102661 410.211464 895.531061 410.211464z"  horiz-adv-x="1025" />

    
    <glyph glyph-name="minus" unicode="&#59066;" d="M895.531061 361.065993 126.604444 361.065993c-13.5716 0-24.573248 11.001648-24.573248 24.573248s11.001648 24.573248 24.573248 24.573248l768.926616 0c13.5716 0 24.573248-11.001648 24.573248-24.573248S909.102661 361.065993 895.531061 361.065993z"  horiz-adv-x="1025" />

    
    <glyph glyph-name="link" unicode="&#59068;" d="M362.150287 210.846657c-6.295871 0-12.564097 2.379509-17.375334 7.190747-9.595853 9.595853-9.595853 25.154815 0 34.750668l297.606604 299.935943c9.595853 9.595853 25.130241 9.595853 34.726095 0 9.595853-9.595853 9.595853-25.154815 0-34.750668L379.500024 218.037404C374.739981 213.227191 368.445134 210.846657 362.150287 210.846657L362.150287 210.846657zM483.13872 270.368183c8.112243-35.80015-0.639928-70.934775-28.303262-98.597085L334.151119 53.030093c-20.881117-20.881117-48.620219-32.370135-78.176716-32.370135-29.529877 0-57.294575 11.490041-78.150095 32.370135-43.093286 43.118883-43.093286 113.260147-0.254947 156.097461l118.380597 122.578527c20.881117 20.881117 48.645816 32.396756 78.176716 32.396756 10.107796 0 19.806038-1.817396 29.299502-4.42728l38.35884 38.35884c-21.394084 10.006431-44.501128 15.199578-67.659366 15.199578-40.867359 0-81.733694-15.583535-112.927384-46.777225L143.048043 244.107572c-62.361783-62.361783-62.361783-163.440767 0-225.828147 31.167069-31.19369 72.034428-46.752652 112.901787-46.752652 40.866335 0 81.73267 15.558961 112.901787 46.752652l120.478538 118.535204c47.674148 47.674148 58.012319 114.155023 32.729518 172.49908L483.13872 270.368183 483.13872 270.368183 483.13872 270.368183zM880.258787 756.971731c-31.19369 31.192666-72.035452 46.777225-112.901787 46.777225-40.867359 0-81.759291-15.584559-112.927384-46.777225L532.397843 637.758715c-49.439327-49.439327-59.522549-123.188763-30.553762-182.735886l38.128466 38.102868c-11.28424 37.694338-2.635481 80.096501 26.919993 109.651975l122.261123 119.444414c20.882141 20.85552 48.621242 32.370135 78.176716 32.370135 29.505303 0 57.295599-11.515638 78.176716-32.370135 43.093286-43.118883 43.093286-113.260147 0.230374-156.122034L723.476347 443.58603c-20.882141-20.882141-48.645816-32.371158-78.176716-32.371158-7.523509 0-14.151119-0.741293-21.367463 0.71672l-39.126754-39.151327c19.550066-8.112243 39.637673-10.695506 60.493193-10.695506 40.867359 0 81.708097 15.583535 112.901787 46.777225L880.232166 531.145632c62.387381 62.361783 62.387381 163.467388 0.025597 225.829171L880.258787 756.971731 880.258787 756.971731z"  horiz-adv-x="1025" />

    
    <glyph glyph-name="xiaoxi" unicode="&#58886;" d="M798.408 326.152v88.407c0 124.764-89.85 229.568-211.378 259.101v1.493c0 41.949-31.487 75.954-70.328 75.954-38.838 0-70.328-34.004-70.328-75.954v-1.733c-121.026-29.856-210.392-134.428-210.392-258.856v-72.751h-0.059c1.453-89.798-70.493-107.41-70.493-155.882s39.292-67.386 87.767-67.386h122.755c1.714-58.393 64.233-105.335 141.109-105.335s139.395 46.938 141.109 105.335h122.438c48.475 0 87.771 18.91 87.771 67.386 0.005 45.503-63.661 64.015-69.969 140.22zM517.151 48.686c-58.389 0-105.722 30.723-105.722 68.625 0 0.413 0.010 0.825 0.026 1.239h211.395c0.010-0.413 0.026-0.822 0.026-1.239-0.005-37.901-47.336-68.625-105.727-68.625zM833.375 183.203c-2.197-22.761-32.25-30.008-51.159-30.008h-530.469c-14.482-1.97-51.705 5.107-51.156 29.513v6.198c0.483 22.037 54.625 40.822 70.179 118.866v34.038h-0.557v66.675c0 119.753 91.718 218.82 211.063 235.378v29.628c0 23.405 15.775 42.378 35.235 42.378s35.235-18.973 35.235-42.378v-29.588c119.477-16.445 211.34-115.569 211.34-235.419v-66.674h-0.205v-30.694h0.273c0.712-56.066 69.668-102.662 70.217-119.522l0.005-8.391z"  horiz-adv-x="1024" />

    
    <glyph glyph-name="tuichufffpx" unicode="&#58892;" d="M718.2-36.4zM94.8-36.4zM920.1 832zM491.5-64C272.4-64 94.8 113.6 94.8 332.7c0 165.8 101.8 307.9 246.2 367.1v-0.1c4.3 1.5 8.9 2.3 13.7 2.3 22.6 0 41.1-18.4 41.1-41 0-17.8-11.4-33.1-27.4-38.7-112.5-47.9-191.5-159.5-191.5-289.6 0-173.8 140.8-314.6 314.6-314.6S806.1 159 806.1 332.7c0 130-78.9 241.7-191.5 289.6-16 5.6-27.3 20.9-27.3 38.7 0 22.7 18.3 41 41 41 4.8 0 9.3-0.8 13.7-2.3v0.1c144.5-59.3 246.2-201.3 246.2-367.1 0-219.1-177.6-396.7-396.7-396.7z m0 424c-22.6 0-41 18.4-41 41.1V770.5c0 22.6 18.4 41 41 41 22.7 0 41-18.4 41-41V401.2c0-22.8-18.3-41.2-41-41.2z"  horiz-adv-x="1024" />

    
    <glyph glyph-name="guanbi" unicode="&#58988;" d="M220.3136 639.488l579.2768-579.2768a25.6 25.6 0 1 1 36.1984 36.1984L256.512 675.6864a25.6 25.6 0 1 1-36.1984-36.1984zM799.5904 675.6864L220.3136 96.4096a25.6 25.6 0 1 1 36.1984-36.1984L835.7888 639.488a25.6 25.6 0 1 1-36.1984 36.1984z"  horiz-adv-x="1024" />

    
    <glyph glyph-name="Group-" unicode="&#59041;" d="M657.28 675.52a32 32 0 0 0 29.44 56.96A388.16 388.16 0 0 0 512 0a388.16 388.16 0 0 0-174.72 732.48 32 32 0 1 0 29.44-56.96 322.56 322.56 0 1 1 465.28-288 323.52 323.52 0 0 1-174.72 288zM480 800a32 32 0 0 0 64 0v-320a32 32 0 0 0-64 0z"  horiz-adv-x="1024" />

    
    <glyph glyph-name="bianji" unicode="&#58887;" d="M153.6-6.656a32.256 32.256 0 0 0 0 64h716.8a32.256 32.256 0 0 0 0-64zM743.936 744.96l72.192-72.192a51.2 51.2 0 0 0 0-72.192L358.4 144.384a51.2 51.2 0 0 0-36.352-14.848H226.816a25.6 25.6 0 0 0-25.6 25.6v97.792a51.2 51.2 0 0 0 14.848 36.352l455.68 455.68a51.2 51.2 0 0 0 72.192 0z m-478.72-497.152v-54.272h54.272l442.88 442.88L708.096 691.2z"  horiz-adv-x="1024" />

    
    <glyph glyph-name="yuechi" unicode="&#58952;" d="M512 891.904C231.424 891.904 4.096 664.576 4.096 384s227.328-508.416 508.416-508.416 508.416 227.328 508.416 508.416S792.576 891.904 512 891.904z m0-941.568c-239.616 0-433.664 194.048-433.664 433.664S272.384 817.664 512 817.664s433.664-194.048 433.664-433.664-194.048-433.664-433.664-433.664zM706.56 579.072c-50.688 50.688-132.608 50.688-183.296 0s-50.688-132.608 0-183.296 132.608-50.688 183.296 0c50.176 51.2 50.176 133.12 0 183.296z m-146.432-146.432c-30.72 30.72-30.72 79.36 0 110.08s79.36 30.72 110.08 0 30.72-79.36 0-110.08-80.384-30.208-110.08 0zM332.288 411.136c11.776 11.776 30.72 11.776 41.984 0L432.128 353.28c2.56-2.56 2.56-7.168 0-9.728l-32.256-32.256c-2.56-2.56-7.168-2.56-9.728 0L332.8 369.664c-11.776 11.264-11.776 30.208-0.512 41.472zM303.616 176.128c-12.8 12.8-12.8 33.792 0 46.592l220.16 220.16c3.072 3.072 8.192 3.072 11.264 0l35.84-35.84c3.072-3.072 3.072-8.192 0-11.264l-219.648-219.648c-13.824-12.8-34.816-12.8-47.616 0z"  horiz-adv-x="1024" />

    
    <glyph glyph-name="suoding" unicode="&#58890;" d="M838.5 379.6c0 169.1-137.6 306.7-306.7 306.7S225.1 548.7 225.1 379.6s137.6-306.7 306.7-306.7c53.7 0 104.2 14 148.2 38.4l-33.8 40.8c-34.5-17.4-73.3-27.4-114.4-27.4-140.6 0-255 114.4-255 255s114.4 255 255 255c124.5 0 228.2-89.7 250.4-207.8h-90.6l131.1-143 0.1-0.1c10 30 15.7 62.2 15.7 95.8zM414.7 414.1v-154.9c0-21.9 17.8-39.7 39.7-39.7h154.9c21.9 0 39.7 17.8 39.7 39.7V414.1c0 13.3-6.6 25-16.7 32.2h0.3c0 55.5-45.2 100.7-100.7 100.7s-100.7-45.2-100.7-100.7h0.3c-10.2-7.2-16.8-18.9-16.8-32.2z m182.5-142.9H466.3V402.1h130.9v-130.9z m-65.4 224.2c24.5 0 44.7-18.1 48.3-41.6h-96.6c3.6 23.4 23.8 41.6 48.3 41.6z"  horiz-adv-x="1024" />

    
    <glyph glyph-name="yuandian" unicode="&#59330;" d="M858.3 584.8C894 523.5 912 456.6 912 384s-17.9-139.5-53.7-200.8C822.5 122 774 73.4 712.8 37.7S584.6-16 512-16s-139.5 17.9-200.8 53.7c-61.2 35.7-109.7 84.2-145.6 145.6C129.9 244.5 112 311.4 112 384c0 72.5 17.9 139.4 53.7 200.8 35.7 61.2 84.2 109.7 145.6 145.6C372.5 766 439.4 784 512 784c72.5 0 139.4-17.9 200.8-53.7C774 694.5 822.5 646 858.3 584.8z m-204.1 44.4c-43.4 25.3-90.8 38-142.2 38s-98.8-12.7-142.2-38-77.8-59.7-103.1-103.1-38-90.8-38-142.2c0-51.4 12.7-98.8 38-142.2s59.7-77.8 103.1-103.1c43.4-25.3 90.8-38 142.2-38s98.8 12.7 142.2 38c43.4 25.3 77.8 59.7 103.1 103.1 25.3 43.4 38 90.8 38 142.2s-12.7 98.8-38 142.2c-25.4 43.4-59.8 77.8-103.1 103.1z m-47.9-151c26.1-26.1 39.1-57.5 39.1-94.3s-13-68.2-39.1-94.3c-26.1-26.1-57.5-39.1-94.3-39.1s-68.2 13-94.3 39.1c-26.1 26.1-39.1 57.5-39.1 94.3s13 68.2 39.1 94.3c26.1 26.1 57.5 39.1 94.3 39.1s68.2-13 94.3-39.1z"  horiz-adv-x="1024" />

    
    <glyph glyph-name="yuechi1" unicode="&#60134;" d="M418.133333 396.8c-21.333333 34.133333-29.866667 72.533333-29.866666 115.2 0 119.466667 93.866667 213.333333 213.333333 213.333333s213.333333-93.866667 213.333333-213.333333-93.866667-213.333333-213.333333-213.333333c-46.933333 0-85.333333 12.8-123.733333 38.4l-98.133334-98.133334 46.933334-46.933333-59.733334-59.733333-46.933333 46.933333-29.866667-29.866667 46.933334-46.933333L277.333333 42.666667 170.666667 149.333333l247.466666 247.466667zM601.6 640c-72.533333 0-128-55.466667-128-128s55.466667-128 128-128 128 55.466667 128 128-59.733333 128-128 128z"  horiz-adv-x="1024" />

    
    <glyph glyph-name="jiantou_qiehuanyou" unicode="&#60165;" d="M793.6 469.333333H896l-85.333333-81.066666-132.266667-132.266667-51.2 51.2 81.066667 81.066667H128V469.333333h665.6z"  horiz-adv-x="1024" />

    
    <glyph glyph-name="jinggao" unicode="&#58933;" d="M923.5 556.8c-22.5 53.2-54.7 101-95.8 142.1s-88.8 73.3-142.1 95.8c-55.1 23.3-113.7 35.1-174 35.1s-118.9-11.8-174-35.1c-53.2-22.5-101-54.7-142.1-95.8S122.3 610 99.8 556.8c-23.3-55.1-35.1-113.7-35.1-174s11.8-118.9 35.1-174c22.5-53.2 54.7-101 95.8-142.1s88.8-73.3 142.1-95.8c55.1-23.3 113.7-35.1 174-35.1s118.9 11.8 174 35.1c53.2 22.5 101 54.7 142.1 95.8s73.3 88.8 95.8 142.1c23.3 55.1 35.1 113.7 35.1 174-0.1 60.3-11.9 118.8-35.2 174zM782.5 112C710.1 39.6 614-0.2 511.7-0.2c-102.3 0-198.5 39.8-270.8 112.2-72.3 72.3-112.2 168.5-112.2 270.8s39.8 198.5 112.2 270.8 168.5 112.2 270.8 112.2c102.3 0 198.5-39.8 270.8-112.2s112.2-168.5 112.2-270.8S854.8 184.3 782.5 112zM512.2 634.2c-28.2 0-50.6-23.7-49-51.9L478.4 315c1-17.9 15.9-31.9 33.8-31.9 18 0 32.8 14 33.8 31.9l15.2 267.3c1.6 28.2-20.8 51.9-49 51.9zM512.2 222c-26.4 0-48-21.6-48-48s21.6-48 48-48 48 21.6 48 48-21.6 48-48 48z"  horiz-adv-x="1024" />

    
    <glyph glyph-name="cuo" unicode="&#58943;" d="M794.8 101.2c-14-14-36.9-14-50.9 0L229.2 615.9c-14 14-14 36.9 0 50.9s36.9 14 50.9 0L794.9 152c13.9-13.9 13.9-36.8-0.1-50.8zM794.8 666.8c14-14 14-36.9 0-50.9L280.1 101.2c-14-14-36.9-14-50.9 0s-14 36.9 0 50.9L744 666.9c13.9 13.9 36.8 13.9 50.8-0.1z"  horiz-adv-x="1024" />

    
    <glyph glyph-name="tianchongxing-" unicode="&#58926;" d="M512 384m-469.5 0a469.5 469.5 0 1 1 939 0 469.5 469.5 0 1 1-939 0ZM553 424.9V637c0 22.6-18.3 41-41 41-22.6 0-41-18.3-41-41v-212.1H258.9c-22.6 0-41-18.3-41-41 0-22.6 18.3-41 41-41H471V131c0-22.6 18.3-41 41-41 22.6 0 41 18.3 41 41V343h212.1c22.6 0 41 18.3 41 41 0 22.6-18.3 41-41 41l-212.1-0.1z"  horiz-adv-x="1024" />

    
    <glyph glyph-name="tianjia" unicode="&#58891;" d="M514-16c-219.9 0-398.8 178.9-398.8 398.8S294.1 781.6 514 781.6s398.8-178.9 398.8-398.8S733.9-16 514-16z m0 701.5c-166.9 0-302.7-135.8-302.7-302.7 0-166.9 135.8-302.7 302.7-302.7s302.7 135.8 302.7 302.7c0 166.9-135.8 302.7-302.7 302.7zM570.1 326.7h126.3c30.9 0 56.1 25.2 56.1 56.1 0 30.9-25.2 56.1-56.1 56.1H570.1V565.2c0 30.9-25.2 56.1-56.1 56.1-30.9 0-56.1-25.2-56.1-56.1v-126.3H331.6c-30.9 0-56.1-25.2-56.1-56.1 0-30.9 25.2-56.1 56.1-56.1h126.3v-126.3c0-30.9 25.2-56.1 56.1-56.1s56.1 25.2 56.1 56.1V326.7z"  horiz-adv-x="1024" />

    
    <glyph glyph-name="baobiao-" unicode="&#59049;" d="M915 29.200000000000045H111.6c-16.6 0-30.1-13.5-30.1-30.1S95-31 111.6-31H915c16.6 0 30.1 13.5 30.1 30.1-0.1 16.6-13.5 30.1-30.1 30.1zM122.9 78.39999999999998h127.8c20.7 0 37.6 16.9 37.6 37.6V451.4c0 20.7-16.9 37.6-37.6 37.6H122.9c-20.7 0-37.6-16.9-37.6-37.6V116c0-20.8 16.8-37.6 37.6-37.6z m22.5 350.5h82.7v-290.3h-82.7V428.9zM907.4 579.2H779.7c-20.7 0-37.6-16.9-37.6-37.6V116c0-20.7 16.9-37.6 37.6-37.6h127.8c20.7 0 37.6 16.9 37.6 37.6V541.6c-0.1 20.7-16.9 37.6-37.7 37.6z m-22.5-440.7h-82.7V519.1h82.7v-380.6zM449.2 78.39999999999998H577c20.7 0 37.6 16.9 37.6 37.6V549.1c0 16.6-13.5 30.1-30.1 30.1s-30.1-13.5-30.1-30.1v-410.6h-82.7V738.9h82.7v-58.1c0-16.6 13.5-30.1 30.1-30.1s30.1 13.5 30.1 30.1v80.6c0 20.7-16.9 37.6-37.6 37.6H449.2c-20.7 0-37.6-16.9-37.6-37.6V116c0-20.8 16.9-37.6 37.6-37.6z"  horiz-adv-x="1024" />

    
    <glyph glyph-name="pingtaigaikuang-" unicode="&#59053;" d="M870.4 761.9h-50.8c-16 0-29-13-29-29s13-29 29-29h50.8v-510.7H156.5V703.8h518c16 0 29 13 29 29s-13 29-29 29h-518c-32 0-58.1-26-58.1-58.1V193c0-32 26-58.1 58.1-58.1h329.7v-70.2H328.9c-16 0-29-13-29-29s13-29 29-29h372.8c16 0 29 13 29 29s-13 29-29 29H544.3v70.2h326.1c32 0 58.1 26 58.1 58.1V703.8c0 32-26.1 58.1-58.1 58.1zM656.1 581.7c-12 1.8-23.9-2.3-32.1-11.2L470.6 416.9l-85.8 65.2c-14.2 10.8-33.9 9.8-46.9-2.5l-85-80.4c-11.6-11-12.2-29.4-1.1-41 11-11.7 29.4-12.2 41-1.1l71.6 67.7 86.2-65.6c14.9-11.3 35.9-9.4 48.6 4.2l147 147.3 88.4-147.5c5.4-9.1 15.1-14.1 24.9-14.1 5.1 0 10.2 1.3 14.9 4.1 13.7 8.2 18.2 26.1 10 39.8L682.8 562.4c-5.3 10.4-15.1 17.5-26.7 19.3z"  horiz-adv-x="1024" />

    
    <glyph glyph-name="zichanpeizhi-" unicode="&#59054;" d="M564.2 795.8H535v-392.3l392.9 0.2v29.2c0 200.1-163.1 362.9-363.7 362.9z m29.2-333.9V736.1c145.1-13.8 260.9-129.3 274.8-274l-274.8-0.2zM377.6 383.1c0-72.8 59.2-132 132-132 47.7 0 91.8 25.9 115.2 67.5 7.9 14.1 2.9 31.8-11.2 39.7-14.1 7.9-31.8 2.9-39.7-11.2-13-23.3-37.7-37.7-64.3-37.7-40.6 0-73.6 33-73.6 73.6 0 29.6 17.6 56.2 44.8 67.8 14.8 6.3 21.7 23.4 15.4 38.3-6.3 14.8-23.4 21.7-38.3 15.4-48.7-20.6-80.3-68.3-80.3-121.4zM900.1 301.20000000000005c-15.5 4.4-31.6-4.6-36.1-20.1-6-21.2-14-41.9-23.8-61.7h-0.4c-44.3 0-86.8-17.5-118.5-49.1-31.7-31.7-49.2-74.4-49.1-118.9-14.4-7.1-29.2-13.3-44.4-18.4-31.4 31.5-73.9 49.4-118.8 49.4-44.9 0-87.4-17.8-118.8-49.4-15.1 5.2-30 11.3-44.4 18.4 0.1 44.5-17.4 87.1-49.1 118.9-31.6 31.6-74.1 49.1-118.5 49.1h-0.4c-7.1 14.4-13.3 29.2-18.4 44.4 31.5 31.4 49.4 73.9 49.4 118.8S191 470 159.4 501.4c5.1 15.1 11.3 30 18.4 44.4h0.4c44.3 0 86.8 17.5 118.5 49.1 31.7 31.7 49.2 74.4 49.1 118.9 19.9 9.8 40.5 17.8 61.7 23.8 15.5 4.4 24.5 20.6 20.1 36.1-4.4 15.5-20.6 24.5-36.1 20.1-29.6-8.4-58.4-20.2-85.6-34.9-12.8-6.9-20.3-20.9-18.9-35.5 2.9-32.4-8.6-64.2-31.5-87.2s-54.7-34.5-87.2-31.5c-14.6 1.3-28.5-6.1-35.5-18.9-13.9-25.7-25.1-52.7-33.4-80.5-4.2-14 0.4-29.1 11.7-38.6 25-20.9 39.4-51.5 39.4-84s-14.3-63.1-39.4-84c-11.3-9.4-15.9-24.6-11.7-38.5 8.3-27.8 19.5-54.9 33.4-80.5 6.9-12.8 20.9-20.2 35.5-18.9 32.4 2.9 64.2-8.6 87.2-31.5 23-23 34.5-54.8 31.5-87.2-1.3-14.6 6.1-28.6 18.9-35.5 25.6-13.9 52.7-25.1 80.5-33.4 3.4-1 6.9-1.5 10.4-1.5 10.7 0 21 4.7 28.1 13.2 20.9 25 51.5 39.4 84 39.4s63.1-14.3 84-39.4c9.4-11.3 24.5-15.9 38.5-11.7 27.8 8.3 54.9 19.5 80.5 33.4 12.8 6.9 20.2 20.9 18.9 35.5-2.9 32.4 8.6 64.2 31.5 87.2 23 23 54.8 34.5 87.2 31.5 14.6-1.3 28.5 6.1 35.5 18.9 14.7 27.2 26.5 56 34.9 85.6 4.6 15.4-4.3 31.5-19.8 35.9z"  horiz-adv-x="1024" />

    
    <glyph glyph-name="zixunguanli-" unicode="&#59059;" d="M883.9 798.1H323.3c-24 0-43.5-19.5-43.5-43.5v-253H140.9c-24 0-43.5-19.5-43.5-43.5v-453.8c0-20 16.3-36.2 36.2-36.2h750.2c24 0 43.5 19.5 43.5 43.5v743c0.1 24-19.4 43.5-43.4 43.5zM869.4 26h-714V443.6h124.4v-307.7c0-16 13-29 29-29s29 13 29 29V740.1h531.6V26zM439.9 575h146.8c16 0 29 13 29 29s-13 29-29 29H439.9c-16 0-29-13-29-29s13-29 29-29zM439.9 372.5h219.3c16 0 29 13 29 29s-13 29-29 29H439.9c-16 0-29-13-29-29s13-29 29-29zM439.9 169.29999999999995h328c16 0 29 13 29 29s-13 29-29 29h-328c-16 0-29-13-29-29s13-29 29-29z"  horiz-adv-x="1024" />

    
    <glyph glyph-name="zhuanbiduihuan-" unicode="&#59062;" d="M647.8 531.7c-2.7 19.3-15.5 30.1-38.5 32.4-13.5-1.1-23.7-5.7-30.4-13.6l-75-90.4-75 90.4c-8.1 7.9-18.2 12.5-30.4 13.6-24.3-2.3-37.2-13.1-38.5-32.4-1.4-8 1.3-14.2 8.1-18.8l64.9-76.7h-42.6c-14.9-2.3-23-8.5-24.3-18.8 0-12.5 8.1-18.8 24.3-18.8h75v-29h-75c-14.9-2.3-23-8.5-24.3-18.8 0-12.5 8.1-18.8 24.3-18.8h75v-52.9c0-19.3 12.8-29 38.5-29 24.3 0 37.2 9.6 38.5 29V332h75c14.9 0 23 6.2 24.3 18.8-2.7 10.2-10.8 16.5-24.3 18.8h-75v29h75c14.9 0 23 6.2 24.3 18.8-2.7 10.2-10.8 16.5-24.3 18.8h-42.6l64.9 76.7c5.3 4.6 8.1 10.8 8.1 18.8zM479.8 36.10000000000002c-181.8 12-324.1 164.5-324.1 347.3 0 191.9 155.7 348 347.2 348 182.4 0 334.5-142.7 346.4-324.9 1-16 14.8-28.1 30.8-27 16 1 28 14.8 27 30.8-13.9 212.5-191.4 379-404.2 379-223.4 0-405.1-182.1-405.1-405.9 0-213.2 166.1-391.1 378.2-405 0.6 0 1.3-0.1 1.9-0.1 15.1 0 27.8 11.7 28.9 27 1 16-11.1 29.8-27 30.8zM927.7 219.79999999999995c0.5 8-2.3 16.2-8.4 22.3L827 334.4c-11.3 11.3-29.6 11.3-40.9 0-11.3-11.3-11.3-29.6 0-40.9l46.5-46.5H653.4c-16 0-28.9-13-28.9-28.9 0-16 13-28.9 28.9-28.9h245.4c16 0 28.9 13 28.9 28.9 0.1 0.5 0 1.1 0 1.7zM751.4 171.29999999999995H506c-16 0-28.9-13-28.9-28.9 0-0.6 0.1-1.2 0.1-1.8-0.5-8 2.3-16.2 8.4-22.3l92.3-92.3c5.7-5.6 13.1-8.5 20.5-8.5s14.8 2.8 20.5 8.5c11.3 11.3 11.3 29.6 0 40.9l-46.5 46.5h179.2c16 0 28.9 13 28.9 28.9-0.1 16-13.1 29-29.1 29z"  horiz-adv-x="1024" />

    
    <glyph glyph-name="yonghuliebiao-" unicode="&#59063;" d="M791.5 799h-563c-31.8 0-57.7-25.9-57.7-57.7v-146.8c0-15.9 12.9-28.9 28.9-28.9s28.9 12.9 28.9 28.9V741.3h563v-714.5h-563V463.4c0 15.9-12.9 28.9-28.9 28.9s-28.9-12.9-28.9-28.9v-436.7c0-31.8 25.9-57.7 57.7-57.7h563c31.8 0 57.7 25.9 57.7 57.7V741.3c0 31.8-25.9 57.7-57.7 57.7zM332 355.1h247.8c15.9 0 28.9 12.9 28.9 28.9 0 15.9-12.9 28.9-28.9 28.9H332c-15.9 0-28.9-12.9-28.9-28.9 0-15.9 12.9-28.9 28.9-28.9zM332 189.10000000000002h356c15.9 0 28.9 12.9 28.9 28.9S704 246.89999999999998 688 246.89999999999998H332c-15.9 0-28.9-12.9-28.9-28.9s12.9-28.9 28.9-28.9zM332 518.7h139.5c15.9 0 28.9 12.9 28.9 28.9s-12.9 28.9-28.9 28.9H332c-15.9 0-28.9-12.9-28.9-28.9s12.9-28.9 28.9-28.9z"  horiz-adv-x="1024" />

    
    <glyph glyph-name="yonghufenzu-" unicode="&#59064;" d="M313 800.1H190.8c-23.9 0-43.3-19.4-43.3-43.3v-743.4c0-23.9 19.4-43.3 43.3-43.3H313c23.9 0 43.3 19.4 43.3 43.3V756.8c0 23.9-19.4 43.3-43.3 43.3z m-14.4-772.3h-93.4V742.4h93.4v-714.6zM876.7 34l-85.3 726.8c-1.3 11.5-7.1 21.8-16.2 28.9-9.1 7.2-20.4 10.4-31.9 9l-116.1-13.6c-11.5-1.3-21.8-7.1-28.9-16.2-0.4-0.5-0.7-1-1.1-1.6C592.5 786 575.5 800 555.3 800H433.1c-23.9 0-43.3-19.4-43.3-43.3v-743.4c0-23.9 19.4-43.3 43.3-43.3h122.3c23.9 0 43.3 19.4 43.3 43.3V658l76-647.7c1.3-11.5 7.1-21.7 16.2-28.9 7.7-6.1 17.1-9.3 26.7-9.3 1.7 0 3.4 0.1 5.1 0.3L838.8-14c23.7 2.8 40.7 24.3 37.9 48z m-335.8-6.2h-93.4V742.4h93.4v-714.6z m189.3 3.6l-81.9 698.1 87.5 10.3 81.9-698.1-87.5-10.3zM251.9 337.20000000000005c15.9 0 28.9 12.9 28.9 28.9v49.4c0 15.9-12.9 28.9-28.9 28.9s-28.9-13-28.9-28.9V366c0-15.9 12.9-28.8 28.9-28.8zM494.2 337.20000000000005c15.9 0 28.9 12.9 28.9 28.9v49.4c0 15.9-12.9 28.9-28.9 28.9s-28.9-12.9-28.9-28.9V366c0.1-15.9 13-28.8 28.9-28.8zM726.8 449.1c-15.8-1.9-27.1-16.2-25.3-32l5.8-49.1c1.7-14.7 14.2-25.5 28.6-25.5 1.1 0 2.3 0.1 3.4 0.2 15.8 1.9 27.1 16.2 25.3 32l-5.8 49.1c-1.8 15.8-16.1 27.2-32 25.3z"  horiz-adv-x="1024" />

    
    <glyph glyph-name="shimingrenzheng-" unicode="&#59067;" d="M507.4 565c-31.1 0-60.4-12.1-82.4-34.1-45.5-45.4-45.5-119.2 0-164.6 22-22 51.3-34.1 82.4-34.1s60.4 12.1 82.4 34.1c45.5 45.4 45.5 119.2 0 164.6-22 22-51.3 34.1-82.4 34.1z m41.4-157.7c-11.1-11-25.8-17.1-41.4-17.1-15.6 0-30.4 6.1-41.4 17.1-22.8 22.8-22.8 59.9 0 82.7 11.4 11.4 26.4 17.1 41.4 17.1s30-5.7 41.4-17.1c22.9-22.8 22.9-59.9 0-82.7zM301.5 231.10000000000002c0-16 13-28.9 29-28.9h363.2c16 0 29 13 29 28.9 0 16-13 28.9-29 28.9H330.5c-16 0-29-12.9-29-28.9zM126.1 427.1c16 0 29 13 29 28.9V740.7h275.5c16 0 29 13 29 28.9 0 16-13 28.9-29 28.9H155.1c-32 0-58-26-58-57.9V456c0-15.9 13-28.9 29-28.9zM431.5 26.399999999999977H155.1V271.5c0 16-13 28.9-29 28.9s-29-13-29-28.9v-245.1c0-31.9 26-57.9 58-57.9h276.4c16 0 29 13 29 28.9s-13 29-29 29zM898.1 300.5c-16 0-29-13-29-28.9v-245.1H607.2c-16 0-29-13-29-28.9s13-28.9 29-28.9h261.9c32 0 58 26 58 57.9V271.5c0 16-13 29-29 29zM869.1 798.6H592.4c-16 0-29-13-29-28.9 0-16 13-28.9 29-28.9h276.7v-286.4c0-16 13-28.9 29-28.9s29 13 29 28.9V740.7c0 31.9-26 57.9-58 57.9z"  horiz-adv-x="1024" />

    
    <glyph glyph-name="zichankongtou-" unicode="&#59069;" d="M790.8 411.4c-15.9 0-28.9-12.9-28.9-28.9v-357H199.4V739.6h165.9c15.9 0 28.9 12.9 28.9 28.9s-12.9 28.9-28.9 28.9H199.4c-31.8 0-57.7-25.9-57.7-57.7v-714.1c0-31.8 25.9-57.7 57.7-57.7H762c31.8 0 57.7 25.9 57.7 57.7v357c0 15.9-13 28.8-28.9 28.8zM884 563.3c-1.8 15.8-12.8 29.3-27.9 34.2l-119.7 38.8-114.7 150.2c-9.7 12.7-27.8 15.1-40.4 5.4-12.7-9.7-15.1-27.8-5.4-40.4l117.8-154.4c5.1-6.6 11.9-11.5 19.9-14.1l89.3-29-274-164.3 74.6 238.2c4.8 15.2-3.7 31.4-18.9 36.2-15.2 4.8-31.4-3.7-36.2-18.9l-87.9-280.6c-5.1-16.3 0.3-33.7 13.7-44.2 7.4-5.8 16.3-8.8 25.2-8.8 7.2 0 14.5 1.9 21 5.9l344 206.4c13.7 8 21.4 23.6 19.6 39.4zM282.3 363.29999999999995c-15.9 0-28.9-12.9-28.9-28.9s12.9-28.9 28.9-28.9h105.5c15.9 0 28.9 12.9 28.9 28.9s-12.9 28.9-28.9 28.9H282.3zM253.4 160.79999999999995c0-15.9 12.9-28.9 28.9-28.9h394c15.9 0 28.9 12.9 28.9 28.9s-12.9 28.9-28.9 28.9h-394c-15.9-0.1-28.9-13-28.9-28.9z"  horiz-adv-x="1024" />

    
    <glyph glyph-name="yaoqingzhuce-" unicode="&#59070;" d="M918.4 603.3c-0.3 0.5-0.5 1-0.8 1.5-0.1 0.2-0.2 0.3-0.3 0.4-0.4 0.6-0.8 1.1-1.2 1.7-0.1 0.1-0.2 0.2-0.2 0.3-10.5 14.4-27.5 23.8-46.6 23.8h-69.5c-15.9 0-28.9-12.9-28.9-28.9 0-15.9 12.9-28.9 28.9-28.9h15.8l-11.3-7.3c-13.4-8.6-17.3-26.5-8.6-39.9 5.5-8.6 14.8-13.2 24.3-13.2 5.4 0 10.8 1.5 15.6 4.6l33.7 21.7v-461.8H154.6v462l306.9-197.8c15.3-9.8 32.8-14.8 50.3-14.8s35 4.9 50.3 14.8l63 40.6c13.4 8.6 17.3 26.5 8.6 39.9-8.6 13.4-26.5 17.3-39.9 8.6l-63-40.6a35.07 35.07 0 0 0-38.1 0L208.3 573.4h335.1c15.9 0 28.9 12.9 28.9 28.9 0 15.9-12.9 28.9-28.9 28.9H154.6c-19.2 0-36.1-9.4-46.6-23.8l-0.3-0.3c-0.4-0.6-0.8-1.1-1.2-1.7-0.1-0.2-0.2-0.3-0.3-0.5l-0.9-1.5c-5.3-8.7-8.5-19-8.5-29.9v-495.9c0-31.8 25.9-57.7 57.7-57.7H869c31.8 0 57.7 25.9 57.7 57.7V573.4c0.2 10.9-3 21.2-8.3 29.9zM574.3 519.9l66.2-61.2c0.2-0.2 0.4-0.3 0.6-0.5 0.3-0.3 0.7-0.6 1.1-0.9 0.4-0.3 0.8-0.6 1.1-0.9 0.4-0.3 0.7-0.5 1.1-0.7 0.4-0.3 0.8-0.5 1.3-0.8 0.4-0.2 0.7-0.4 1.1-0.6 0.4-0.2 0.9-0.4 1.4-0.7 0.4-0.2 0.8-0.3 1.1-0.5 0.5-0.2 0.9-0.4 1.4-0.5 0.4-0.1 0.8-0.3 1.2-0.4 0.5-0.1 1-0.3 1.5-0.4l1.2-0.3c0.6-0.1 1.1-0.2 1.7-0.3 0.3 0 0.7-0.1 1-0.1 0.9-0.1 1.9-0.1 2.8-0.1 0.4 0 0.7 0 1.1 0.1 0.6 0 1.2 0 1.8 0.1h0.1c1-0.1 2-0.2 3-0.2 7 0 14 2.5 19.6 7.7l66.2 61.2c11.7 10.8 12.4 29.1 1.6 40.8-10.8 11.7-29.1 12.4-40.8 1.6L689 540.4V719.2c0 15.9-12.9 28.9-28.9 28.9s-28.9-12.9-28.9-28.9V546l-17.7 16.4c-11.7 10.8-30 10.1-40.8-1.6-10.9-11.8-10.1-30.1 1.6-40.9z"  horiz-adv-x="1024" />

    
    <glyph glyph-name="richangqiandao-" unicode="&#59071;" d="M869.8 702.2H742.5c-15.9 0-28.8-12.9-28.8-28.8s12.9-28.8 28.8-28.8h127.2v-559.3H154.9V644.7h109.3c15.9 0 28.8 12.9 28.8 28.8s-12.9 28.8-28.8 28.8H154.9c-31.7 0-57.6-25.8-57.6-57.6v-559.3c0-31.7 25.8-57.6 57.6-57.6h714.9c31.7 0 57.6 25.8 57.6 57.6V644.7c-0.1 31.7-25.9 57.5-57.6 57.5zM450.1 644.7h108.8c15.9 0 28.8 12.9 28.8 28.8s-12.9 28.8-28.8 28.8H450.1c-15.9 0-28.8-12.9-28.8-28.8s12.9-28.8 28.8-28.8zM354 433.4h57.6v-57.6H354zM223.6 433.4h57.6v-57.6h-57.6zM354 268h57.6v-57.6H354zM223.6 268h57.6v-57.6h-57.6zM355.8 578.1c15.9 0 28.8 12.9 28.8 28.8V709.4c0 15.9-12.9 28.8-28.8 28.8S327 725.3 327 709.4v-102.5c0.1-15.9 12.9-28.8 28.8-28.8zM650 578.1c15.9 0 28.8 12.9 28.8 28.8V709.4c0 15.9-12.9 28.8-28.8 28.8s-28.8-12.9-28.8-28.8v-102.5c0-15.9 12.9-28.8 28.8-28.8zM563.8 337.6c-12.1 10.3-30.2 8.9-40.6-3.1-10.3-12.1-8.9-30.2 3.1-40.6l78.6-67.3c6.7-5.7 15.3-8.9 24.1-8.9 1.1 0 2.2 0 3.3 0.2 9.9 0.9 19.1 5.9 25.3 13.6l142 176.3c10 12.4 8 30.5-4.4 40.5s-30.5 8-40.5-4.4L626.3 284.1l-62.5 53.5z"  horiz-adv-x="1024" />

    
    <glyph glyph-name="qiaquanguanli-" unicode="&#59072;" d="M898.4 495.8c16 0 29 13 29 29V652.3c0 32-26 58.1-58.1 58.1H155.5c-32 0-58.1-26-58.1-58.1v-150l21.8-5.6c51.3-13.2 87.1-59.4 87.1-112.5 0-53-35.8-99.3-87.1-112.5l-21.8-5.6v-150c0-32 26-58.1 58.1-58.1h713.9c32 0 58.1 26 58.1 58.1v150l-21.8 5.6c-51.3 13.2-87.1 59.4-87.1 112.5 0 16-13 29-29 29s-29-13-29-29c0-71.8 43.8-135.3 108.9-161.5v-106.5h-714V222.70000000000005c65.1 26.2 108.9 89.7 108.9 161.5s-43.8 135.3-108.9 161.5V652.3h713.9v-127.5c0-16 13-29 29-29zM692.9 516.6h-321c-16 0-29-13-29-29s13-29 29-29h321c16 0 29 13 29 29s-13 29-29 29zM692.9 310h-321c-16 0-29-13-29-29s13-29 29-29h321c16 0 29 13 29 29s-13 29-29 29z"  horiz-adv-x="1024" />

    
    <glyph glyph-name="APPgonggao-" unicode="&#59080;" d="M865.6 300.20000000000005c16 0 29 13 29 29V436.7c0 41.2-26.6 76.3-63.5 89l-0.3 0.3-199.9 199.9c-1.4 1.4-3 2.7-4.6 3.7-18.9 41.1-60.5 69.7-108.6 69.7-50.4 0-93.6-31.4-111.2-75.7L213 530.1c-46.4-5.9-82.3-45.5-82.3-93.4v-373.1c0-51.9 42.3-94.2 94.2-94.2h575.6c51.9 0 94.2 42.3 94.2 94.2V204.79999999999995c0 16-13 29-29 29s-29-13-29-29v-141.3c0-20-16.3-36.2-36.2-36.2H224.8c-20 0-36.2 16.3-36.2 36.2V436.7c0 20 16.3 36.2 36.2 36.2h575.6c20 0 36.2-16.3 36.2-36.2v-107.5c0-16 13-29 29-29z m-347.9 260c53.2 0 98.4 34.9 113.8 83.1L744 530.8H295.7L405 640.1c16.4-46.5 60.7-79.9 112.7-79.9z m0 181.2c34 0 61.6-27.6 61.6-61.6s-27.6-61.6-61.6-61.6-61.6 27.6-61.6 61.6 27.7 61.6 61.6 61.6zM557.6 413.3L438 348.4h-47c-33.5 0-60.8-27.1-60.8-60.5v-56.2c0-33.4 27.3-60.5 60.8-60.5h41.3l126-64.5c4.2-2.1 8.7-3.2 13.2-3.2 5.3 0 10.5 1.4 15.1 4.3 8.6 5.3 13.9 14.6 13.9 24.7V387.8c0 10.2-5.4 19.7-14.2 24.9-8.8 5.2-19.7 5.5-28.7 0.6z m-15.1-233.4l-90 46.1c-4.1 2.1-8.6 3.2-13.2 3.2h-48.2c-1.5 0-2.8 1.2-2.8 2.6V288c0 1.3 1.3 2.6 2.8 2.6h42.3c3.2 0 6.6-0.1 12-0.1 4.8 0 9.6 1.2 13.8 3.5l83.4 45.2v-159.3zM637 307.29999999999995v-94.2c0-16 13-29 29-29s29 13 29 29v94.2c0 16-13 29-29 29s-29-13-29-29z"  horiz-adv-x="1024" />

    
    <glyph glyph-name="zichanbaobiao-" unicode="&#59081;" d="M927.9 451.3c-3.6 64.6-117.6 94.1-223.8 94.1h-0.2v109c0 27.5-17.3 66.3-99.7 95.2-54.7 19.2-126.9 29.7-203.3 29.7-76.3 0-148.5-10.5-203.3-29.7-82.4-28.8-99.7-67.7-99.7-95.2V573c0-16 13-29 29-29s29 13 29 29v4.5c11.6-6.3 25.3-12.5 41.7-18.2 54.7-19.2 126.9-29.7 203.3-29.7s148.5 10.5 203.3 29.7c16.3 5.7 30.1 11.8 41.7 18.2v-34.9c-85.9-9-162.7-38.3-165.6-91.1-0.1-1-0.2-2-0.2-3.1v-98.6c-25.5-2.8-52-4.3-79.2-4.3-70 0-135.4 9.4-184.1 26.5-44.3 15.5-60.8 33-60.8 40.4v8.9c0 16-13 29-29 29s-29-13-29-29v-273c0-27.5 17.3-66.3 99.7-95.2 54.7-19.2 126.9-29.7 203.3-29.7 38.4 0 75.7 2.6 110.9 7.8 1.4 0.2 2.7 0.5 4 0.9 42.7-28.1 117.2-41.3 188.2-41.3 107.8 0 223.9 30.4 223.9 97.2V448.2c0.1 1.1 0 2.1-0.1 3.1zM585.1 614C536.4 596.9 471 587.5 401 587.5s-135.4 9.4-184.1 26.5c-44.3 15.5-60.8 33-60.8 40.4s16.5 24.9 60.8 40.4c48.7 17.1 114.1 26.5 184.1 26.5s135.4-9.4 184.1-26.5c44.3-15.5 60.8-33 60.8-40.4s-16.5-24.9-60.8-40.4z m285-337.3c-5.7-11.8-61.8-40-165.9-40S544 265 538.3 276.70000000000005V380.20000000000005C582 360.4 644.4 351 704.2 351c59.9 0 122.3 9.4 165.9 29.2v-103.5z m-166 210.8c101.7 0 157.6-27 165.5-39.2-7.8-12.3-63.7-39.3-165.5-39.3s-157.6 27-165.5 39.2c7.9 12.3 63.8 39.3 165.5 39.3zM216.9 107.70000000000005c-44.3 15.5-60.8 33-60.8 40.4V335.20000000000005c11.6-6.3 25.3-12.5 41.7-18.2 54.7-19.2 126.9-29.7 203.3-29.7 27 0 53.6 1.3 79.2 3.9V88c0-0.8 0.1-1.6 0.1-2.5-25.5-2.8-52.1-4.3-79.3-4.3-70.1 0.1-135.5 9.5-184.2 26.5z m487.2-58.9c-104.1 0-160.2 28.3-165.9 40v119c43.7-19.8 106.1-29.2 165.9-29.2 59.9 0 122.3 9.4 165.9 29.2v-119c-5.7-11.7-61.8-40-165.9-40z"  horiz-adv-x="1024" />

    
    <glyph glyph-name="jifenquanhuizong-" unicode="&#59084;" d="M378.4 26.299999999999955H162.5c-3.4 0-5.8 1-7 1.9V739c1.2 0.8 3.6 1.9 7 1.9h695c3.4 0 5.8-1 7-1.9v-352.3c0-15.9 12.9-28.9 28.9-28.9s28.9 12.9 28.9 28.9V740.9c0 31.8-29 57.7-64.7 57.7h-695c-35.7 0-64.7-25.9-64.7-57.7v-714.5c0-31.8 29-57.7 64.7-57.7h215.9c15.9 0 28.9 12.9 28.9 28.9s-13 28.7-29 28.7zM898.4 175.60000000000002c15.9 0 28.9 12.9 28.9 28.9v60.4c0 24.4-19.9 44.3-44.3 44.3H518.3c-24.4 0-44.3-19.9-44.3-44.3v-82.8l21.7-5.6c21.3-5.5 36.1-24.7 36.1-46.6s-14.8-41.2-36.1-46.6l-21.7-5.6v-64.8c0-24.4 19.9-44.3 44.3-44.3H883c24.4 0 44.3 19.9 44.3 44.3v64.8l-21.7 5.6a48.04 48.04 0 0 0-36.1 46.6c0 15.9-12.9 28.9-28.9 28.9s-28.9-12.9-28.9-28.9c0-40.5 22.9-76.6 57.8-94.4v-9.2H531.8v9.2c34.9 17.8 57.8 53.9 57.8 94.4s-22.9 76.6-57.8 94.4v27.2h337.8v-47c-0.1-16 12.9-28.9 28.8-28.9zM653.6 164.29999999999995c-15.9 0-28.9-12.9-28.9-28.9s12.9-28.9 28.9-28.9h97.7c15.9 0 28.9 12.9 28.9 28.9s-12.9 28.9-28.9 28.9h-97.7zM780.2 575c0 15.9-12.9 28.9-28.9 28.9H243.7c-15.9 0-28.9-12.9-28.9-28.9 0-15.9 12.9-28.9 28.9-28.9h507.6c15.9 0 28.9 12.9 28.9 28.9zM538.9 413.8c0 15.9-12.9 28.9-28.9 28.9H243.7c-15.9 0-28.9-12.9-28.9-28.9 0-15.9 12.9-28.9 28.9-28.9H510c16 0 28.9 12.9 28.9 28.9zM243.7 278.9c-15.9 0-28.9-12.9-28.9-28.9s12.9-28.9 28.9-28.9h122c15.9 0 28.9 12.9 28.9 28.9s-12.9 28.9-28.9 28.9h-122z"  horiz-adv-x="1024" />

    
    <glyph glyph-name="zhanghuguanli-" unicode="&#59099;" d="M616.7 116.29999999999995c71.2 0 129.1 56.9 129.1 126.8S687.8 370 616.7 370s-129.1-56.9-129.1-126.8 57.9-126.9 129.1-126.9z m0 195.9c39.3 0 71.3-31 71.3-69 0-38.1-32-69-71.3-69s-71.3 31-71.3 69 31.9 69 71.3 69zM824.4 26.899999999999977H408.9c-16 0-28.9-12.9-28.9-28.9s12.9-28.9 28.9-28.9h415.5c16 0 28.9 12.9 28.9 28.9s-12.9 28.9-28.9 28.9zM795.3 739.5v-316.1c0-16 12.9-28.9 28.9-28.9s28.9 12.9 28.9 28.9V741.3c0 31.9-29 57.8-64.6 57.8H236.1c-35.6 0-64.6-25.9-64.6-57.8v-743.1c0-16 12.9-28.9 28.9-28.9s28.9 12.9 28.9 28.9V739.5c1.1 0.8 3.5 1.8 6.8 1.8h552.4c3.3 0 5.7-1 6.8-1.8zM503.6 439.3c0 16-12.9 28.9-28.9 28.9H295.5c-16 0-28.9-12.9-28.9-28.9s12.9-28.9 28.9-28.9h179.3c15.9 0 28.8 12.9 28.8 28.9zM682.9 613.3c0 16-12.9 28.9-28.9 28.9H295.5c-16 0-28.9-12.9-28.9-28.9s12.9-28.9 28.9-28.9H654c16 0 28.9 12.9 28.9 28.9z"  horiz-adv-x="1024" />

    
    <glyph glyph-name="quanxianguanli-" unicode="&#59100;" d="M508.7 463.2c29.4 0 55.9-17.5 67.4-44.6 6.3-14.8 23.3-21.6 38.1-15.4 14.8 6.3 21.6 23.3 15.4 38.1-20.6 48.6-68.1 79.9-120.8 79.9-72.4 0-131.3-58.9-131.3-131.3 0-47.5 25.7-91.4 67.2-114.6 4.5-2.5 9.4-3.7 14.2-3.7 10.2 0 20 5.3 25.4 14.8 7.8 14 2.9 31.7-11.1 39.5-23.1 13-37.5 37.5-37.5 63.9-0.3 40.5 32.6 73.4 73 73.4zM407.2 37.39999999999998c-21 6-41.6 14-61.4 23.7 0.1 44.2-17.3 86.7-48.8 118.2-31.5 31.5-73.7 48.8-117.8 48.8h-0.4c-7.1 14.3-13.2 29.1-18.3 44.1 31.4 31.2 49.1 73.5 49.1 118.2 0 44.6-17.7 87-49.1 118.2 5.1 15.1 11.3 29.8 18.3 44.1h0.4c44.1 0 86.4 17.4 117.8 48.8 31.6 31.6 48.9 74 48.8 118.2 14.3 7.1 29.1 13.2 44.1 18.3 31.2-31.4 73.5-49.1 118.2-49.1s87 17.7 118.2 49.1c15.1-5.1 29.8-11.3 44.1-18.3-0.1-44.2 17.3-86.7 48.8-118.2 31.5-31.5 73.7-48.8 117.9-48.8h0.4c9.8-19.7 17.7-40.3 23.7-61.4 4.4-15.4 20.5-24.4 35.9-20 15.4 4.4 24.4 20.5 20 35.9-8.4 29.4-20.1 58.1-34.7 85.1-6.9 12.8-20.8 20.2-35.3 18.8-32.2-2.9-63.9 8.5-86.7 31.4-22.8 22.8-34.3 54.5-31.4 86.7 1.3 14.5-6.1 28.4-18.8 35.3-25.5 13.8-52.5 25-80.1 33.2-13.9 4.2-29-0.4-38.3-11.6-20.8-24.9-51.2-39.2-83.5-39.2s-62.8 14.3-83.5 39.2c-9.4 11.2-24.4 15.8-38.3 11.6-27.6-8.3-54.6-19.4-80.1-33.2-12.7-6.9-20.1-20.7-18.8-35.3 2.9-32.3-8.5-63.9-31.4-86.7-22.8-22.8-54.5-34.3-86.7-31.4-14.5 1.3-28.4-6.1-35.3-18.8-13.8-25.5-25-52.5-33.2-80.1-4.2-13.9 0.4-29 11.6-38.3 24.9-20.8 39.2-51.2 39.2-83.5s-14.3-62.8-39.2-83.5c-11.2-9.4-15.8-24.4-11.6-38.3 8.3-27.6 19.4-54.6 33.2-80.1 6.9-12.7 20.8-20.1 35.3-18.8 32.3 2.9 63.9-8.5 86.7-31.4 22.8-22.8 34.3-54.5 31.4-86.7-1.3-14.5 6.1-28.4 18.8-35.3 27.1-14.6 55.7-26.3 85.1-34.7 2.7-0.8 5.3-1.1 8-1.1 12.6 0 24.3 8.3 27.9 21.1 4.1 15.3-4.8 31.4-20.2 35.8zM890.6 254h-66.5v53.2c0 58.4-47.5 105.8-105.8 105.8-58.4 0-105.8-47.5-105.8-105.8V254H546c-20 0-36.3-16.3-36.3-36.3v-212c0-20 16.3-36.3 36.3-36.3h344.7c20 0 36.3 16.3 36.3 36.3v212c-0.1 20-16.4 36.3-36.4 36.3z m-220.1 53.2c0 26.3 21.4 47.8 47.8 47.8 26.3 0 47.8-21.4 47.8-47.8V254h-95.6v53.2z m198.3-279.7H567.7V196h301.2v-168.5z"  horiz-adv-x="1024" />

    
    <glyph glyph-name="wakuangpeizhi-" unicode="&#59101;" d="M924 543.72l0.07 0.12a29 29 0 0 1 1.45 3.33c0.1 0.26 0.18 0.53 0.27 0.8q0.46 1.37 0.78 2.78c0.06 0.26 0.13 0.51 0.18 0.77a29.27 29.27 0 0 1 0.49 3.48v0.61a29.15 29.15 0 0 1 0 3v0.85a28.86 28.86 0 0 1-1.44 7.08c-0.08 0.25-0.18 0.49-0.27 0.73a28.9 28.9 0 0 1-1.21 2.82c-0.08 0.15-0.12 0.32-0.2 0.47s-0.09 0.13-0.13 0.21a29.28 29.28 0 0 1-1.76 3L776.61 785.24c-0.09 0.12-0.19 0.23-0.28 0.35q-0.75 1-1.59 2c-0.17 0.2-0.34 0.41-0.52 0.61a28.93 28.93 0 0 1-2 2l-0.31 0.29a29.37 29.37 0 0 1-2.47 2l-0.15 0.09c-0.19 0.13-0.4 0.24-0.59 0.37-0.73 0.48-1.46 0.93-2.22 1.34-0.28 0.15-0.57 0.29-0.86 0.43-0.71 0.35-1.43 0.68-2.15 1l-0.91 0.34c-0.77 0.28-1.54 0.52-2.33 0.73l-0.82 0.22a29 29 0 0 1-3 0.56h-0.19a29 29 0 0 1-3.29 0.2H269.19A29.1 29.1 0 0 1 245.08 785L102.24 573.51a29.28 29.28 0 0 1-1.66-2.81l-0.08-0.14c-0.07-0.14-0.11-0.28-0.18-0.42a28.88 28.88 0 0 1-1.24-2.87c-0.1-0.27-0.2-0.53-0.29-0.8a28.94 28.94 0 0 1-0.94-3.4v-0.07a28.91 28.91 0 0 1-0.48-3.59v-0.82q-0.07-1.44 0-2.88v-0.81a29.23 29.23 0 0 1 0.48-3.45c0-0.23 0.11-0.45 0.16-0.67q0.32-1.42 0.79-2.8c0.1-0.3 0.2-0.59 0.31-0.89a29 29 0 0 1 3.36-6.43c0.06-0.09 0.11-0.19 0.17-0.28l385.95-542.52a29.09 29.09 0 0 1 47.41 0l385.93 542.51c0.07 0.1 0.12 0.21 0.19 0.31a28.87 28.87 0 0 1 1.88 3.04zM494.67 160.53999999999996l-99.56 367.6h173.06z m-82.86 425.79l84 124.51L557 586.3299999999999zM546.5 739.65h150.07l-88.43-125.54z m-261.85 0h160.43L341.62 586.3299999999999H181.1z m50.18-211.51L428.32 183 182.75 528.14z m208.88-419.06l83.79 419.06h53.21a29.09 29.09 0 0 1 0 58.18h-21l92.64 131.51 90.52-131.51h-35.8a29.09 29.09 0 0 1 0-58.18h34.74z"  horiz-adv-x="1024" />

    
    <glyph glyph-name="kuangjifenzu-" unicode="&#59103;" d="M276.6 210.89999999999998h-107c-39.8 0-72.2-32.4-72.2-72.2V41c0-39.8 32.4-72.2 72.2-72.2h107c39.8 0 72.2 32.4 72.2 72.2v97.7c0 39.8-32.4 72.2-72.2 72.2z m14.4-170c0-7.8-6.6-14.4-14.4-14.4h-107c-7.8 0-14.4 6.6-14.4 14.4v97.7c0 7.8 6.6 14.4 14.4 14.4h107c7.8 0 14.4-6.6 14.4-14.4v-97.7zM570 210.89999999999998H463c-39.8 0-72.2-32.4-72.2-72.2V41c0-39.8 32.4-72.2 72.2-72.2h107c39.8 0 72.2 32.4 72.2 72.2v97.7c0 39.8-32.4 72.2-72.2 72.2z m14.4-170c0-7.8-6.6-14.4-14.4-14.4H463c-7.8 0-14.4 6.6-14.4 14.4v97.7c0 7.8 6.6 14.4 14.4 14.4h107c7.8 0 14.4-6.6 14.4-14.4v-97.7zM855 210.89999999999998H748c-39.8 0-72.2-32.4-72.2-72.2V41c0-39.8 32.4-72.2 72.2-72.2h107c39.8 0 72.2 32.4 72.2 72.2v97.7c0 39.8-32.4 72.2-72.2 72.2z m14.4-170c0-7.8-6.6-14.4-14.4-14.4H748c-7.8 0-14.4 6.6-14.4 14.4v97.7c0 7.8 6.6 14.4 14.4 14.4h107c7.8 0 14.4-6.6 14.4-14.4v-97.7zM214.8 260.9c16 0 28.9 12.9 28.9 28.9v53h239.9v-49.4c0-16 12.9-28.9 28.9-28.9 16 0 28.9 12.9 28.9 28.9v49.4h238.5v-53c0-16 12.9-28.9 28.9-28.9 16 0 28.9 12.9 28.9 28.9v81.9c0 16-12.9 28.9-28.9 28.9H541.3v63.8h99.3c39.8 0 72.2 32.4 72.2 72.2V726.4c0 39.8-32.4 72.2-72.2 72.2H384.2c-39.8 0-72.2-32.4-72.2-72.2v-189.8c0-39.8 32.4-72.2 72.2-72.2h99.3v-63.8H214.8c-16 0-28.9-12.9-28.9-28.9v-81.9c0-15.9 12.9-28.9 28.9-28.9z m155 275.7V726.4c0 7.8 6.6 14.4 14.4 14.4h256.4c7.8 0 14.4-6.6 14.4-14.4v-189.8c0-7.8-6.6-14.4-14.4-14.4H384.2c-7.8 0-14.4 6.6-14.4 14.4z"  horiz-adv-x="1024" />

    
    <glyph glyph-name="daojuguanli-" unicode="&#59104;" d="M855 763.5H168.7c-39.6 0-71.9-32.2-71.9-71.9v-146.1c0-39.6 32.2-71.9 71.9-71.9h5.1v-394.2c0-42.7 38.3-77.5 85.4-77.5h505.2c47.1 0 85.4 34.8 85.4 77.5V249.89999999999998c0 15.9-12.9 28.8-28.8 28.8s-28.8-12.9-28.8-28.8v-170.4c0-10.7-13-20-27.9-20h-505c-14.9 0-27.9 9.3-27.9 20V473.6h561v-108.5c0-15.9 12.9-28.8 28.8-28.8s28.8 12.9 28.8 28.8V473.6h5.1c39.6 0 71.9 32.2 71.9 71.9V691.6c-0.1 39.7-32.4 71.9-72 71.9z m14.4-218c0-7.8-6.6-14.4-14.4-14.4H168.7c-7.8 0-14.4 6.6-14.4 14.4V691.6c0 7.8 6.6 14.4 14.4 14.4H855c7.8 0 14.4-6.6 14.4-14.4v-146.1zM368.6 412.2c-15.9 0-28.8-12.9-28.8-28.8s12.9-28.8 28.8-28.8h286.6c15.9 0 28.8 12.9 28.8 28.8s-12.9 28.8-28.8 28.8H368.6z"  horiz-adv-x="1024" />

    
    <glyph glyph-name="pindaoyepeizhi-" unicode="&#59105;" d="M844 594.8H559.8L692.3 754c9.8 11.8 8.2 29.3-3.6 39.2-11.8 9.8-29.3 8.2-39.2-3.6L496 605.2l-126 95c-12.3 9.2-29.7 6.8-39-5.5-9.2-12.3-6.8-29.7 5.5-39l80.8-60.9H180.2c-38.3 0-69.5-31.2-69.5-69.5v-486.1c0-38.3 31.2-69.5 69.5-69.5H844c38.3 0 69.5 31.2 69.5 69.5V525.3c0.1 38.3-31.1 69.5-69.5 69.5z m13.9-555.6c0-7.5-6.4-13.9-13.9-13.9H180.2c-7.5 0-13.9 6.4-13.9 13.9V525.3c0 7.5 6.4 13.9 13.9 13.9H844c7.5 0 13.9-6.4 13.9-13.9v-486.1zM427.5 248.5c4.3-2.5 9.1-3.7 13.9-3.7 4.8 0 9.6 1.2 13.9 3.7l141.4 81.2c8.6 5 14 14.2 14 24.1s-5.3 19.2-14 24.1l-141.4 81.2c-8.6 4.9-19.2 4.9-27.8 0-8.6-5-13.9-14.1-13.9-24.1v-162.4c0-10 5.3-19.1 13.9-24.1z m41.7 138.4l57.7-33.2-57.7-33.2v66.4zM633.6 160.5h-243c-15.4 0-27.8-12.5-27.8-27.8 0-15.4 12.5-27.8 27.8-27.8h243c15.4 0 27.8 12.5 27.8 27.8s-12.4 27.8-27.8 27.8z"  horiz-adv-x="1024" />

    
    <glyph glyph-name="shangpinku-" unicode="&#59106;" d="M927.5 55L914 148.5c-2.3 15.8-16.9 26.8-32.8 24.5-15.8-2.3-26.8-16.9-24.5-32.8l13.4-93.2c1.2-9.1-1.2-15.6-3.9-18.7-1.7-1.9-3-2.2-4.2-2.2H164.7c-1.2 0-2.6 0.3-4.2 2.2-2.7 3.1-5.2 9.6-4 18.4L220.9 494c0.8 6 7 10.9 11.6 10.9h108.7v-137c0-16 13-28.9 28.9-28.9s28.9 13 28.9 29V505h240.4v-137c0-16 13-28.9 28.9-28.9s28.9 13 28.9 28.9V505h97c4.6 0 10.8-4.9 11.6-11.2l33.4-232.3c2.3-15.8 16.9-26.8 32.8-24.5 15.8 2.3 26.8 16.9 24.5 32.8l-33.4 232c-4.6 34.3-34.8 61.1-68.9 61.1h-97v56.9c0 98.2-79.9 178.1-178.1 178.1C420.9 797.9 341 718 341 619.8v-56.9H232.4c-34.1 0-64.4-26.8-68.9-60.8L99.2 54.700000000000045c-3.2-24.4 3.2-47.9 17.8-64.5 12.4-14.1 29.3-21.9 47.8-21.9H862c18.4 0 35.4 7.8 47.8 21.9 14.5 16.7 21 40.2 17.7 64.8zM399 619.8c0 66.3 54 120.2 120.2 120.2 66.3 0 120.2-53.9 120.2-120.2v-56.9H399v56.9z"  horiz-adv-x="1024" />

    
    <glyph glyph-name="jingpaihuodong-" unicode="&#59107;" d="M906.2 171.70000000000005L592.9 485.1c-1.6 1.6-3.3 3.1-5 4.5l96.9 96.9c26.8 26.8 26.8 70.4 0 97.2l-94.2 94.2c-26.8 26.8-70.4 26.8-97.2 0l-55-55c-11.3-11.3-11.3-29.6 0-40.9 11.3-11.3 29.6-11.3 40.9 0l55 55c4.2 4.2 11.2 4.2 15.3 0l94.2-94.2c4.2-4.2 4.2-11.2 0-15.3l-128.9-129c-7-3.3-13.5-7.7-19.2-13.5l-86.5-86.5c-5.7-5.7-10.2-12.2-13.5-19.3l-31.6-31.6-109.5 109.7 149.1 149.1c11.3 11.3 11.3 29.6 0 40.9-11.3 11.3-29.6 11.3-40.9 0L118.6 403.1c-12.9-12.9-20.1-30.2-20.1-48.6 0-18.4 7.1-35.6 20.1-48.6l94.2-94.2c13.4-13.4 31-20.1 48.6-20.1s35.2 6.7 48.6 20.1l94.7 94.7c1.4-1.7 2.9-3.4 4.5-5L722.5-12c13.4-13.4 31-20.1 48.6-20.1s35.2 6.7 48.6 20.1l86.5 86.5c26.8 26.8 26.8 70.4 0 97.2zM269 252.60000000000002c-4.2-4.2-11.2-4.2-15.3 0l-94.2 94.2c-2.7 2.7-3.1 6-3.1 7.7 0 1.7 0.4 5 3.1 7.7l54.2 54.2 109.5-109.5-54.2-54.3z m596.3-137.1L778.8 29c-4.2-4.2-11.2-4.2-15.3 0L450.1 342.29999999999995c-2.2 2.2-2.9 4.7-3.1 6.5l98.4 98.4c2.4-0.2 4.7-1.2 6.5-3l313.3-313.3c4.2-4.2 4.2-11.3 0.1-15.4zM495.5 27.399999999999977H127.4c-16 0-28.9-13-28.9-28.9s13-28.9 28.9-28.9h368.1c16 0 28.9 13 28.9 28.9s-13 28.9-28.9 28.9z"  horiz-adv-x="1024" />

    
    <glyph glyph-name="duobaozhuanqu-" unicode="&#59108;" d="M800.6 653.1C793.5 733.7 725.8 797 643.4 797c-53.2 0-100.3-26.5-128.9-66.9C486 770.5 438.9 797 385.7 797c-82.3 0-150-63.3-157.1-143.8-71.6-0.1-129.9-58.4-129.9-130.1v-47.4c0-67 50.9-122.3 116-129.3v-251.3c0-70.6 65.3-128.1 145.6-128.1H670c80.3 0 145.6 57.5 145.6 128.1v55.8c0 16-12.9 28.9-28.9 28.9s-28.9-12.9-28.9-28.9v-55.8c0-38.1-40.2-70.3-87.8-70.3H360.3c-47.6 0-87.8 32.2-87.8 70.3V345.6h485.3V263c0-16 12.9-28.9 28.9-28.9s28.9 12.9 28.9 28.9v84c63.2 8.8 112 63.2 112 128.8v47.4c0 70.6-56.7 128.3-127 129.9z m-157.2 86.1c50.4 0 92.2-37.5 99-86h-198c6.9 48.5 48.7 86 99 86z m-257.7 0c50.4 0 92.2-37.5 99-86h-198c6.8 48.5 48.6 86 99 86z m484.1-263.5c0-39.8-32.4-72.3-72.3-72.3H228.7c-39.8 0-72.3 32.4-72.3 72.3v47.4c0 39.8 32.4 72.3 72.3 72.3h568.8c39.9 0 72.3-32.4 72.3-72.3v-47.4zM436.2 211.20000000000005c-16 0-28.9-12.9-28.9-28.9s12.9-28.9 28.9-28.9h161.6c16 0 28.9 12.9 28.9 28.9s-12.9 28.9-28.9 28.9H436.2z"  horiz-adv-x="1024" />

    
    <glyph glyph-name="dingdanzhongxin-" unicode="&#59109;" d="M848.5 560.8c16 0 28.9 12.9 28.9 28.9v78.1c0 71.7-58.3 130-130 130H277.1c-71.7 0-130-58.3-130-130v-570c0-71.7 58.3-130 130-130h470.3c71.7 0 130 58.3 130 130V319.9c0 16-12.9 28.9-28.9 28.9-16 0-28.9-12.9-28.9-28.9v-222.1c0-39.8-32.4-72.2-72.2-72.2H277.1c-39.8 0-72.2 32.4-72.2 72.2v570c0 39.8 32.4 72.2 72.2 72.2h470.3c39.8 0 72.2-32.4 72.2-72.2v-78.1c0-16 12.9-28.9 28.9-28.9zM644.4 594.9H321.2c-16 0-28.9-12.9-28.9-28.9s12.9-28.9 28.9-28.9h323.2c16 0 28.9 12.9 28.9 28.9s-12.9 28.9-28.9 28.9zM673.3 386.4c0 16-12.9 28.9-28.9 28.9H321.2c-16 0-28.9-12.9-28.9-28.9 0-16 12.9-28.9 28.9-28.9h323.2c16 0 28.9 13 28.9 28.9zM321.2 235.79999999999995c-16 0-28.9-12.9-28.9-28.9 0-16 12.9-28.9 28.9-28.9H509c16 0 28.9 12.9 28.9 28.9 0 16-12.9 28.9-28.9 28.9H321.2z"  horiz-adv-x="1024" />

    
    <glyph glyph-name="zixunpeizhi-" unicode="&#59110;" d="M630.1 165.20000000000005c-8.9 0-16.9 5.3-20.3 13.5-6.2 14.7-23.2 21.5-37.8 15.3-14.7-6.2-21.5-23.2-15.3-37.8 12.5-29.5 41.4-48.6 73.4-48.6 44 0 79.8 35.8 79.8 79.8 0 28.8-15.6 55.5-40.8 69.6-13.9 7.8-31.5 2.8-39.3-11.1-7.8-13.9-2.8-31.5 11.1-39.3 7-3.9 11.3-11.3 11.3-19.3-0.1-12.2-10-22.1-22.1-22.1zM836.7 156.39999999999998c-9.1 7.6-14.3 18.7-14.3 30.6s5.2 23 14.3 30.5c10 8.4 14.1 21.8 10.4 34.3-4.4 14.7-10.3 29.1-17.7 42.6-6.2 11.4-18.5 18.1-31.5 16.9-11.8-1.1-23.4 3.1-31.7 11.5-8.4 8.4-12.5 19.9-11.5 31.8 1.2 13-5.5 25.4-16.9 31.5-14.4 7.8-29.6 14-45.3 18.5-15.3 4.4-31.3-4.5-35.7-19.8-4.4-15.3 4.5-31.3 19.8-35.7 7-2 13.9-4.5 20.6-7.4 2.1-22.4 11.9-43.5 28.1-59.7 16.2-16.2 37.3-26 59.7-28.1 0.7-1.6 1.4-3.2 2-4.8-14.4-17.3-22.3-39.2-22.3-62.1s8-44.7 22.3-62.1c-0.6-1.6-1.3-3.2-2-4.8-22.4-2.1-43.5-11.9-59.7-28.1-16.2-16.2-26-37.3-28.1-59.7-1.6-0.7-3.2-1.4-4.8-2-17.3 14.4-39.2 22.3-62.1 22.3s-44.8-8-62.1-22.3c-1.6 0.6-3.2 1.3-4.8 2-2.1 22.4-11.9 43.5-28.1 59.7-16.2 16.2-37.3 26-59.7 28.1-2.9 6.7-5.4 13.6-7.4 20.6-4.4 15.3-20.3 24.2-35.7 19.8-15.3-4.4-24.2-20.3-19.8-35.7 4.5-15.7 10.7-30.9 18.5-45.3 6.2-11.5 18.6-18.1 31.5-16.9 11.8 1.1 23.4-3.1 31.7-11.5 8.4-8.4 12.5-19.9 11.5-31.7-1.2-13 5.4-25.4 16.9-31.6 13.6-7.3 27.9-13.3 42.6-17.7 12.5-3.8 25.9 0.3 34.3 10.4 7.6 9.1 18.7 14.3 30.6 14.3s23-5.2 30.6-14.3c6.3-7.6 15.5-11.7 25-11.7 3.1 0 6.2 0.4 9.3 1.4 14.7 4.4 29.1 10.3 42.6 17.7 11.4 6.2 18.1 18.5 16.9 31.5-1.1 11.8 3.1 23.4 11.5 31.7 8.4 8.4 19.9 12.6 31.7 11.5 13.1-1.2 25.4 5.4 31.6 16.9 7.3 13.6 13.3 27.9 17.7 42.7 3.6 12.4-0.5 25.9-10.5 34.2zM787.3 798.8H235.9c-35.6 0-64.5-25.9-64.5-57.7v-741.9c0-15.9 12.9-28.9 28.9-28.9s28.9 12.9 28.9 28.9v740c1.1 0.8 3.5 1.8 6.8 1.8h551.4c3.3 0 5.7-1 6.8-1.8v-315.6c0-15.9 12.9-28.9 28.9-28.9 15.9 0 28.9 12.9 28.9 28.9V741.1c-0.2 31.8-29.1 57.7-64.7 57.7zM295.1 410.8h251.1c15.9 0 28.9 12.9 28.9 28.9s-12.9 28.9-28.9 28.9H295.1c-15.9 0-28.9-12.9-28.9-28.9s13-28.9 28.9-28.9zM466.9 265.9c0 15.9-12.9 28.9-28.9 28.9H295.1c-15.9 0-28.9-12.9-28.9-28.9 0-15.9 12.9-28.9 28.9-28.9H438c16 0.1 28.9 13 28.9 28.9zM681.9 613.4c0 15.9-12.9 28.9-28.9 28.9H295c-15.9 0-28.9-12.9-28.9-28.9s12.9-28.9 28.9-28.9h358c16 0 28.9 12.9 28.9 28.9z"  horiz-adv-x="1024" />

    
    <glyph glyph-name="fenleiguanli-" unicode="&#59111;" d="M393.4 345.70000000000005H125.7c-16 0-28.9-13-28.9-28.9v-267.6c0-16 13-28.9 28.9-28.9h267.6c16 0 28.9 13 28.9 28.9V316.79999999999995c0.1 16-12.8 28.9-28.8 28.9z m-29-267.6H154.7V287.9h209.8v-209.8zM897.9 312H568.7c-16 0-28.9-13-28.9-28.9 0-16 13-28.9 28.9-28.9h329.1c16 0 28.9 13 28.9 28.9 0.1 15.9-12.9 28.9-28.8 28.9zM897.9 111.89999999999998H568.7c-16 0-28.9-13-28.9-28.9 0-16 13-28.9 28.9-28.9h329.1c16 0 28.9 13 28.9 28.9 0.1 15.9-12.9 28.9-28.8 28.9zM393.4 744H125.7c-16 0-28.9-13-28.9-28.9v-267.6c0-16 13-28.9 28.9-28.9h267.6c16 0 28.9 13 28.9 28.9V715c0.1 16-12.8 29-28.8 29z m-29-267.7H154.7V686.1h209.8v-209.8zM568.7 652.3h329.1c16 0 28.9 13 28.9 28.9s-13 28.9-28.9 28.9H568.7c-16 0-28.9-13-28.9-28.9s12.9-28.9 28.9-28.9zM897.9 510.1H568.7c-16 0-28.9-13-28.9-28.9 0-16 13-28.9 28.9-28.9h329.1c16 0 28.9 13 28.9 28.9 0.1 15.9-12.9 28.9-28.8 28.9z"  horiz-adv-x="1024" />

    
    <glyph glyph-name="wenzhangguanli-" unicode="&#59112;" d="M897.5 296.5c16 0 29 12.9 29 28.9V742c0 31.8-26 57.8-58.1 57.8h-2.9l-359.4-71.6-348.6 71.6h-3c-32 0-58.1-25.9-58.1-57.8v-641.7c0-30.7 24.2-55.9 54.7-57.7L494-26.200000000000045c3.7-1.7 7.8-2.6 12.1-2.6h0.9l7-1.4 358 72.9c30.4 1.8 54.6 27 54.6 57.7v87.8c0 15.9-13 28.9-29 28.9s-29-12.9-29-28.9v-87.8h-2.9l-330.4-67.3V675l333.4 66.4v-416.1c-0.3-15.9 12.7-28.8 28.8-28.8zM154.6 100.29999999999995V741.4L477 675.2v-639.1l-319.6 64.2h-2.8zM235.8 552.6l166.1-30.4c1.8-0.3 3.5-0.5 5.3-0.5 13.7 0 25.9 9.7 28.5 23.7 2.9 15.7-7.5 30.7-23.3 33.6l-166.1 30.4c-15.8 2.9-30.9-7.5-33.8-23.2-2.9-15.7 7.6-30.7 23.3-33.6zM412.4 412.7l-166.1 30.4c-15.8 2.9-30.9-7.5-33.8-23.2-2.9-15.7 7.5-30.7 23.3-33.6l166.1-30.4c1.8-0.3 3.5-0.5 5.3-0.5 13.7 0 25.9 9.7 28.5 23.7 2.9 15.7-7.5 30.7-23.3 33.6zM798.5 586.2c-2.9 15.7-18 26.1-33.8 23.2l-166-30.4c-15.8-2.9-26.2-17.9-23.3-33.6 2.6-13.9 14.8-23.7 28.5-23.7 1.7 0 3.5 0.2 5.3 0.5l166.1 30.4c15.7 2.9 26.1 17.9 23.2 33.6zM798.5 419.9c-2.9 15.7-18 26.1-33.8 23.2l-166.1-30.4c-15.8-2.9-26.2-17.9-23.3-33.6 2.6-13.9 14.8-23.7 28.5-23.7 1.7 0 3.5 0.2 5.3 0.5l166.1 30.4c15.8 2.8 26.2 17.9 23.3 33.6zM412.4 245.10000000000002l-166.1 30.4c-15.8 2.9-30.9-7.5-33.8-23.2-2.9-15.7 7.5-30.7 23.3-33.6l166.1-30.4c1.8-0.3 3.5-0.5 5.3-0.5 13.7 0 25.9 9.7 28.5 23.7 2.9 15.7-7.5 30.8-23.3 33.6zM764.7 275.5l-166.1-30.4c-15.8-2.9-26.2-17.9-23.3-33.6 2.6-13.9 14.8-23.7 28.5-23.7 1.7 0 3.5 0.2 5.3 0.5l166.1 30.4c15.8 2.9 26.2 17.9 23.3 33.6-2.9 15.7-18 26.1-33.8 23.2z"  horiz-adv-x="1024" />

    
    <glyph glyph-name="yaoqingpeizhi-" unicode="&#59125;" d="M913.4 476.5c-8.6 5.3-19.3 5.7-28.3 1.1L512.2 287.5 139.4 477.6c-9 4.6-19.7 4.2-28.3-1.1-8.6-5.3-13.9-14.6-13.9-24.7v-361.3c0-65.6 53.3-118.9 118.9-118.9h592.2c65.6 0 118.9 53.3 118.9 118.9V451.7c0 10.1-5.2 19.5-13.8 24.8z m-44.2-386.1c0-33.6-27.3-60.9-60.9-60.9H216.1c-33.6 0-60.9 27.3-60.9 60.9v314L499.1 229c8.3-4.2 18.1-4.2 26.4 0l343.8 175.3v-313.9zM259.7 466.2c16 0 29 13 29 29V676.8c0 33.6 27.3 60.9 60.9 60.9H675c33.6 0 60.9-27.3 60.9-60.9v-181.6c0-16 13-29 29-29s29 13 29 29V676.8c0 65.6-53.3 118.9-118.9 118.9H349.6c-65.6 0-118.9-53.3-118.9-118.9v-181.6c0-16 13-29 29-29zM656.5 634.5c0 16-13 29-29 29H374c-16 0-29-13-29-29s13-29 29-29h253.5c16 0 29 13 29 29zM378 548c-16 0-29-13-29-29s13-29 29-29h126.7c16 0 29 13 29 29s-13 29-29 29H378z"  horiz-adv-x="1024" />

    
    <glyph glyph-name="qiandaopeizhi-" unicode="&#59127;" d="M807.5 719H704.3v51.6c0 15.9-12.9 28.9-28.9 28.9s-28.9-12.9-28.9-28.9V719h-38.4c-15.9 0-28.9-12.9-28.9-28.9s12.9-28.9 28.9-28.9h38.4v-51.6c0-15.9 12.9-28.9 28.9-28.9s28.9 12.9 28.9 28.9v51.6h103.3c33.8 0 61.4-27.5 61.4-61.4v-125.3H157.2V599.8c0 33.8 27.5 61.4 61.4 61.4h103.3v-51.6c0-15.9 12.9-28.9 28.9-28.9s28.9 12.9 28.9 28.9v51.6h50.5c15.9 0 28.9 12.9 28.9 28.9S446 719 430.1 719h-50.5v51.6c0 15.9-12.9 28.9-28.9 28.9s-28.9-12.9-28.9-28.9V719H218.5c-65.7 0-119.1-53.4-119.1-119.1v-511.3c0-65.7 53.4-119.1 119.1-119.1h589c65.7 0 119.1 53.4 119.1 119.1V599.8c0 65.7-53.4 119.2-119.1 119.2z m0-691.9h-589c-33.8 0-61.4 27.5-61.4 61.4V416.8h711.7v-328.2c0.1-33.9-27.4-61.5-61.3-61.5zM676.1 349.5L457.6 166.29999999999995l-95.9 86.2c-11.9 10.7-30.1 9.7-40.8-2.2-10.7-11.9-9.7-30.1 2.2-40.8l114.6-103c5.5-4.9 12.4-7.4 19.3-7.4 6.6 0 13.2 2.2 18.6 6.7l237.7 199.3c12.2 10.2 13.8 28.5 3.6 40.7-10.4 12.4-28.6 14-40.8 3.7z"  horiz-adv-x="1024" />

    
    <glyph glyph-name="jifenquanliebiao-" unicode="&#59130;" d="M406.3-31.299999999999955H236.4c-65.4 0-118.7 53.2-118.7 118.7V680c0 65.4 53.2 118.7 118.7 118.7h73.2c15.9 0 28.8-12.9 28.8-28.8s-12.9-28.8-28.8-28.8h-73.2c-33.7 0-61.1-27.4-61.1-61.1v-592.6c0-33.7 27.4-61.1 61.1-61.1h169.9c15.9 0 28.8-12.9 28.8-28.8-0.1-15.9-13-28.8-28.8-28.8zM842.5 469c-15.9 0-28.8 12.9-28.8 28.8V680c0 33.7-27.4 61.1-61.1 61.1h-62.1c-15.9 0-28.8 12.9-28.8 28.8s12.9 28.8 28.8 28.8h62.1c65.4 0 118.7-53.2 118.7-118.7v-182.2c-0.1-15.9-13-28.8-28.8-28.8zM595.7 741.2H406.3c-15.9 0-28.8 12.9-28.8 28.8s12.9 28.8 28.8 28.8h189.4c15.9 0 28.8-12.9 28.8-28.8s-12.9-28.8-28.8-28.8zM719.2 541H263.6c-15.9 0-28.8 12.9-28.8 28.8s12.9 28.8 28.8 28.8h455.6c15.9 0 28.8-12.9 28.8-28.8S735.1 541 719.2 541zM455.4 349.1H263.6c-15.9 0-28.8 12.9-28.8 28.8s12.9 28.8 28.8 28.8h191.8c15.9 0 28.8-12.9 28.8-28.8s-12.9-28.8-28.8-28.8zM455.4 157.29999999999995H263.6c-15.9 0-28.8 12.9-28.8 28.8s12.9 28.8 28.8 28.8h191.8c15.9 0 28.8-12.9 28.8-28.8s-12.9-28.8-28.8-28.8zM719.9 247.70000000000005c-93.3 0-187.5 26.4-187.5 85.3 0 59 94.2 85.3 187.5 85.3S907.4 392 907.4 333c0-58.9-94.2-85.3-187.5-85.3zM592 333c11.5-10.1 55.2-27.8 127.9-27.8s116.4 17.8 128 27.8c-11.5 10.1-55.2 27.8-127.9 27.8S603.5 343.1 592 333z m258.5-2.9zM719.9 105.70000000000005c-93.3 0-187.5 26.4-187.5 85.3 0 15.9 12.9 28.8 28.8 28.8 15.2 0 27.6-11.7 28.7-26.6 7.1-9.4 51.7-29.9 130-29.9s122.9 20.5 130 29.9c1.1 14.9 13.5 26.6 28.7 26.6 15.9 0 28.8-12.9 28.8-28.8 0-58.9-94.2-85.3-187.5-85.3zM719.9-28.600000000000023c-93.3 0-187.5 26.4-187.5 85.3 0 15.9 12.9 28.8 28.8 28.8 15.2 0 27.6-11.7 28.7-26.6 7.1-9.4 51.7-29.9 130-29.9s122.9 20.5 130 29.9c1.1 14.9 13.5 26.6 28.7 26.6 15.9 0 28.8-12.9 28.8-28.8 0-58.9-94.2-85.3-187.5-85.3z"  horiz-adv-x="1024" />

    
    <glyph glyph-name="fahangpici-" unicode="&#59133;" d="M807.2 615H371.9c-66 0-119.8-53.7-119.8-119.8v-389c0-66 53.7-119.8 119.8-119.8h435.3c66 0 119.8 53.7 119.8 119.8v389c-0.1 66.1-53.8 119.8-119.8 119.8z m61.7-508.7c0-34-27.7-61.7-61.7-61.7H371.9c-34 0-61.7 27.7-61.7 61.7v389c0 34 27.7 61.7 61.7 61.7h435.3c34 0 61.7-27.7 61.7-61.7v-389zM865.1 752.8c0 16-13 29-29 29H220.6C152.4 781.8 97 726.3 97 658.2v-555c0-16 13-29 29-29s29 13 29 29v555c0 36.2 29.4 65.6 65.6 65.6h615.5c16 0 29 13 29 29zM460.4 411.3c-10.7 12-29 13.1-41 2.4s-13.1-29-2.4-41L508.3 270l-91.2-101.5c-10.7-11.9-9.7-30.3 2.2-41 5.5-5 12.5-7.4 19.4-7.4 7.9 0 15.9 3.2 21.6 9.6l108.6 120.8c9.9 11 9.9 27.7 0.1 38.7L460.4 411.3zM751.7 178.10000000000002H611.9c-16 0-29-13-29-29s13-29 29-29h139.8c16 0 29 13 29 29s-13 29-29 29z"  horiz-adv-x="1024" />

    
    <glyph glyph-name="quanliqialiebiao-" unicode="&#59135;" d="M842.8 157.70000000000005c12.2 21.5 19.2 46.4 19.2 72.9 0 81.7-66.5 148.2-148.2 148.2s-148.2-66.5-148.2-148.2 66.5-148.2 148.2-148.2c33.9 0 65.2 11.5 90.2 30.7l71.5-90.8c5.7-7.3 14.2-11.1 22.8-11.1 6.3 0 12.6 2 17.9 6.2 12.6 9.9 14.8 28.2 4.9 40.8l-78.3 99.5z m-129-17.3c-49.7 0-90.2 40.5-90.2 90.2s40.5 90.2 90.2 90.2 90.2-40.5 90.2-90.2-40.5-90.2-90.2-90.2zM851.1 631.4H483.7v48.7c0 42-34.2 76.2-76.2 76.2h-234c-42 0-76.2-34.2-76.2-76.2v-591.4c0-42 34.2-76.2 76.2-76.2h314.8c16 0 29 13 29 29s-13 29-29 29H173.5c-9.8 0-18.1 8.3-18.1 18.1V680.1c0 9.8 8.3 18.1 18.1 18.1h234c9.8 0 18.1-8.3 18.1-18.1v-77.7c0-16 13-29 29-29h396.5c9.8 0 18.1-8.3 18.1-18.1v-93.6c0-16 13-29 29-29s29 13 29 29v93.6c0.1 41.9-34 76.1-76.1 76.1zM577.8 440.6c0 16-13 29-29 29H262.1c-16 0-29-13-29-29s13-29 29-29h286.6c16.1-0.1 29.1 12.9 29.1 29zM262.1 297.20000000000005c-16 0-29-13-29-29s13-29 29-29h176c16 0 29 13 29 29s-13 29-29 29h-176z"  horiz-adv-x="1024" />

    
    <glyph glyph-name="huoyuezhijilu-" unicode="&#59137;" d="M898.5 608.3c16 0 29 13 29 29v84.8c0 42-34.2 76.1-76.1 76.1H173.7c-42 0-76.1-34.2-76.1-76.1V249c0-42 34.2-76.1 76.1-76.1h309.9v-145H211.7c-16 0-29-13-29-29s13-29 29-29h601.6c16 0 29 13 29 29s-13 29-29 29H541.6v145h309.9c42 0 76.1 34.2 76.1 76.1V494.1c0 16-13 29-29 29s-29-13-29-29V249c0-9.8-8.3-18.1-18.1-18.1H173.7c-9.8 0-18.1 8.3-18.1 18.1V722.2c0 9.8 8.3 18.1 18.1 18.1h677.7c9.8 0 18.1-8.3 18.1-18.1v-84.8c0-16.1 13-29.1 29-29.1zM241.6 402v-98.6c0-16 13-29 29-29s29 13 29 29V402c0 16-13 29-29 29s-29-13-29-29zM396.3 433.1v-129.7c0-16 13-29 29-29s29 13 29 29V433.1c0 16-13 29-29 29s-29-13-29-29zM551 471.5v-168.1c0-16 13-29 29-29s29 13 29 29V471.5c0 16-13 29-29 29-16.1 0-29-13-29-29zM734.7 270.5c16 0 29 13 29 29V504.4c0 16-13 29-29 29s-29-13-29-29v-204.9c0-16 12.9-29 29-29zM756 646.3c10.9 11.8 10.2 30.1-1.6 41-11.8 10.9-30.1 10.1-41-1.6-83.4-90.2-351-149.1-447.2-164.1h-0.2c-12.5-2-22.3-11.9-24.1-24.5-1.8-12.6 4.8-24.9 16.2-30.3 3.6-1.7 6-2.9 11.1-2.9 8.3 0 23.9 3 64.5 11.2 32.5 6.6 82.4 17.5 136.2 32.6 141.2 39.4 237.5 86 286.1 138.6z"  horiz-adv-x="1024" />

    
    <glyph glyph-name="shanghuhaopeizhi" unicode="&#59138;" d="M849.4 241.5c-9.4 13-27.5 16-40.5 6.6s-16-27.5-6.6-40.5c38.2-53.1 60.7-114.6 65.9-179.3H156.6c14.8 183.3 168.7 328 355.8 328 78.5 0 153-25 215.4-72.2 12.8-9.7 31-7.2 40.6 5.6 9.7 12.8 7.2 31-5.6 40.6-39.2 29.7-82.5 51.7-128.3 65.8 58 39.3 96.2 105.7 96.2 180.8 0 120.3-97.9 218.3-218.3 218.3-120.3 0-218.3-97.9-218.3-218.3 0-75.2 38.2-141.7 96.3-180.9-169.5-52.2-293-210.3-293-396.7v-29h830v29c0 87.6-27 171.4-78 242.2zM352.2 576.9c0 88.4 71.9 160.2 160.2 160.2 88.4 0 160.2-71.9 160.2-160.2s-71.9-160.2-160.2-160.2c-88.4 0-160.2 71.9-160.2 160.2zM466.4 294.5c-16 0-29-13-29-29v-87.3c0-4.5 1-8.9 3.1-12.9l43.6-87.3c4.7-9.5 14.3-15.6 24.9-16h1.1c10.2 0 19.7 5.4 24.9 14.1l48.4 81.1c2.7 4.5 4.1 9.6 4.1 14.9v93.6c0 16-13 29-29 29h-92.1z m63-114.6l-17.1-28.7-16.9 33.8v51.5h33.9v-56.6z"  horiz-adv-x="1024" />

    
    <glyph glyph-name="shanghuhaoliebiao-" unicode="&#59139;" d="M552.3 227.10000000000002c0-82.6 67.2-149.9 149.9-149.9 82.6 0 149.9 67.2 149.9 149.9 0 82.6-67.2 149.9-149.9 149.9s-149.9-67.3-149.9-149.9z m241.7 0c0-50.7-41.2-91.9-91.9-91.9s-91.9 41.2-91.9 91.9 41.2 91.9 91.9 91.9 91.9-41.2 91.9-91.9zM897.4 27H506.8c-16 0-29-13-29-29s13-29 29-29h390.7c16 0 29 13 29 29s-13.1 29-29.1 29zM688.5 608.3h-443c-16 0-29-13-29-29s13-29 29-29h443c16 0 29 13 29 29s-13 29-29 29zM245.5 348.20000000000005h261.3c16 0 29 13 29 29s-13 29-29 29H245.5c-16 0-29-13-29-29 0.1-16 13-29 29-29zM376.2 204H245.5c-16 0-29-13-29-29s13-29 29-29h130.6c16 0 29 13 29 29s-12.9 29-28.9 29zM832.3 799.1H192.4c-51.9 0-94.1-42.2-94.1-94.1v-641.7c0-51.9 42.2-94.1 94.1-94.1H283c16 0 29 13 29 29s-13 29-29 29h-90.5c-20 0-36.2 16.2-36.2 36.2V704.9c0 20 16.2 36.2 36.2 36.2h639.8c20 0 36.2-16.2 36.2-36.2v-253.5c0-16 13-29 29-29s29 13 29 29V704.9c-0.1 51.9-42.3 94.2-94.2 94.2z"  horiz-adv-x="1024" />

    
    <glyph glyph-name="shenheliebiao-" unicode="&#59140;" d="M291 539h282.1c16 0 28.9 13 28.9 28.9 0 16-13 28.9-28.9 28.9H291c-16 0-28.9-13-28.9-28.9 0-16 12.9-28.9 28.9-28.9zM470.6 417.2H291c-16 0-28.9-13-28.9-28.9s13-28.9 28.9-28.9h179.6c16 0 28.9 13 28.9 28.9s-12.9 28.9-28.9 28.9zM768.4 799.2H257.2c-65.8 0-119.4-53.5-119.4-119.4v-591.3c0-65.8 53.5-119.4 119.4-119.4H432c16 0 28.9 13 28.9 28.9s-13 28.9-28.9 28.9H257.2c-33.9 0-61.5 27.6-61.5 61.5V679.9c0 33.9 27.6 61.5 61.5 61.5h511.2c33.9 0 61.5-27.6 61.5-61.5v-216.3c0-16 13-28.9 28.9-28.9s28.9 13 28.9 28.9V679.9c0.1 65.8-53.5 119.3-119.3 119.3zM799.4 116.70000000000005c12.2 21.5 19.2 46.3 19.2 72.7 0 81.5-66.3 147.8-147.8 147.8S523 270.79999999999995 523 189.39999999999998s66.3-147.8 147.8-147.8c33.8 0 65 11.4 89.9 30.6l71.2-90.5c5.7-7.3 14.2-11 22.8-11 6.3 0 12.6 2 17.9 6.2 12.6 9.9 14.7 28.1 4.8 40.6l-78 99.2z m-128.6-17.2c-49.6 0-89.9 40.3-89.9 89.9s40.3 89.9 89.9 89.9 89.9-40.3 89.9-89.9-40.3-89.9-89.9-89.9z"  horiz-adv-x="1024" />

    
    <glyph glyph-name="shanghuhaohoutai-" unicode="&#59141;" d="M899 587c16 0 28.9 12.9 28.9 28.9V701c0 41.9-34.1 75.9-75.9 75.9H173.8c-41.9 0-75.9-34.1-75.9-75.9v-449.5c0-41.9 34.1-75.9 75.9-75.9H852c41.9 0 75.9 34.1 75.9 75.9V479.8c0 16-12.9 28.9-28.9 28.9s-28.9-12.9-28.9-28.9v-228.2c0-9.8-8.3-18.1-18.1-18.1H173.8c-9.8 0-18.1 8.3-18.1 18.1V701.1c0 9.8 8.3 18.1 18.1 18.1H852c9.8 0 18.1-8.3 18.1-18.1V616c0-16 12.9-29 28.9-29zM781.3 49.10000000000002H244.5c-16 0-28.9-12.9-28.9-28.9s12.9-28.9 28.9-28.9h536.8c16 0 28.9 12.9 28.9 28.9s-12.9 28.9-28.9 28.9zM487.8 505.2c-16 0-28.9-12.9-28.9-28.9 0-16 12.9-28.9 28.9-28.9h278.4c16 0 28.9 12.9 28.9 28.9 0 16-12.9 28.9-28.9 28.9H487.8zM231.6 282.6c4.9-3.2 10.3-4.7 15.7-4.7 9.5 0 18.7 4.6 24.3 13.2l110.3 169.5c6.4 9.8 6.2 22.4-0.4 32.1L271.2 653.9c-9 13.2-27 16.6-40.2 7.6-13.2-9-16.6-27-7.6-40.2l99.4-145.4-99.7-153.3c-8.7-13.4-4.9-31.3 8.5-40z"  horiz-adv-x="1024" />

    
    <glyph glyph-name="zimeitipeizhi-" unicode="&#59142;" d="M900.4 564.5c16 0 29 13 29 29v92.9c0 42-34.2 76.2-76.2 76.2H175.7c-42 0-76.2-34.2-76.2-76.2v-605.5c0-42 34.2-76.2 76.2-76.2h677.6c42 0 76.2 34.2 76.2 76.2V472.6c0 16-13 29-29 29s-29-13-29-29v-228.8h-714V686.4c0 9.8 8.3 18.1 18.1 18.1h677.6c9.8 0 18.1-8.3 18.1-18.1v-92.9c0.1-16 13.1-29 29.1-29z m-29-378.9v-104.8c0-9.8-8.3-18.1-18.1-18.1H175.7c-9.8 0-18.1 8.3-18.1 18.1V185.60000000000002h713.8zM426 619.4c-9 4.5-19.7 4.1-28.3-1.2a28.94 28.94 0 0 1-13.8-24.7v-241.9c0-10.1 5.2-19.4 13.8-24.7 4.6-2.9 9.9-4.3 15.2-4.3 4.5 0 9 1 13.1 3.1l239.5 121c9.8 4.9 15.9 15 15.9 25.9 0 11-6.2 21-15.9 25.9L426 619.4z m15.9-220.6V546.3L588 472.6l-146.1-73.8z"  horiz-adv-x="1024" />

    
    <glyph glyph-name="zimeitiliebiao-" unicode="&#59143;" d="M372.3 437.6c4.5-2.6 9.5-3.9 14.5-3.9s9.9 1.3 14.4 3.8l146.7 84.2c9 5.1 14.5 14.7 14.5 25s-5.5 19.9-14.5 25L401.2 656c-8.9 5.1-19.9 5.1-28.8 0-8.9-5.2-14.4-14.7-14.4-25v-168.5c-0.1-10.3 5.4-19.8 14.3-24.9z m43.3 143.6l59.9-34.4-59.9-34.4v68.8zM873.4 730.7c-15.9 0-28.9-12.9-28.9-28.9V45c0-9.8-8.3-18-18-18h-51.1c1.4 5.8 2.3 11.8 2.3 18V723.5c0 41.8-34 75.7-75.7 75.7H197.4c-41.8 0-75.7-34-75.7-75.7V45c0-41.8 34-75.7 75.7-75.7h629.1c41.8 0 75.7 34 75.7 75.7V701.9c0.1 15.9-12.8 28.8-28.8 28.8zM322 27H197.4c-9.8 0-18 8.3-18 18V723.5c0 9.8 8.3 18 18 18H702c9.8 0 18-8.3 18-18V45c0-9.8-8.3-18-18-18H322zM574.1 346.20000000000005H322c-15.9 0-28.9-12.9-28.9-28.9 0-15.9 12.9-28.9 28.9-28.9h252.1c15.9 0 28.9 12.9 28.9 28.9-0.1 16-13 28.9-28.9 28.9zM574.1 207.39999999999998H322c-15.9 0-28.9-12.9-28.9-28.9s12.9-28.9 28.9-28.9h252.1c15.9 0 28.9 12.9 28.9 28.9s-13 28.9-28.9 28.9z"  horiz-adv-x="1024" />

    
    <glyph glyph-name="wenzishenhe-" unicode="&#59144;" d="M861.7 599.3c16 0 29 13 29 29V770.2c0 16-13 29-29 29H353.9c-120.3 0-218.1-97.8-218.1-218.1v-582.8c0-16 13-29 29-29h507.8c120.3 0 218.1 97.8 218.1 218.1V490.1c0 16-13 29-29 29s-29-13-29-29v-302.8c0-88.2-71.8-160-160-160H193.8V581.1c0 88.2 71.8 160 160 160h478.8v-112.9c0.1-15.9 13.1-28.9 29.1-28.9zM333.6 537.6h263.2c16 0 29 13 29 29s-13 29-29 29H333.6c-16 0-29-13-29-29-0.1-16 12.9-29 29-29zM333.6 230.89999999999998c-16 0-29-13-29-29s13-29 29-29h263.2c16 0 29 13 29 29s-13 29-29 29H333.6zM722 384.2c0 16-13 29-29 29H333.6c-16 0-29-13-29-29s13-29 29-29h359.3c16.1 0 29.1 13 29.1 29z"  horiz-adv-x="1024" />

    
    <glyph glyph-name="guanggaoshenhe-" unicode="&#59150;" d="M400.9 26.299999999999955H231.7c-33.6 0-60.9 27.3-60.9 60.9V677.7c0 33.6 27.3 60.9 60.9 60.9h73c15.8 0 28.7 12.8 28.7 28.7S320.5 796 304.6 796h-73c-65.2 0-118.3-53.1-118.3-118.3v-590.5c0-65.2 53.1-118.3 118.3-118.3h169.2c15.8 0 28.7 12.8 28.7 28.7s-12.7 28.7-28.6 28.7zM684.1 738.6H746c33.6 0 60.9-27.3 60.9-60.9v-181.6c0-15.8 12.8-28.7 28.7-28.7s28.7 12.8 28.7 28.7V677.7c0 65.2-53.1 118.3-118.3 118.3h-61.9c-15.8 0-28.7-12.8-28.7-28.7s12.8-28.7 28.7-28.7zM258.8 596.5c-15.8 0-28.7-12.8-28.7-28.7 0-15.8 12.8-28.7 28.7-28.7h454c15.8 0 28.7 12.8 28.7 28.7 0 15.8-12.8 28.7-28.7 28.7h-454zM414.1 405.3H258.8c-15.8 0-28.7-12.8-28.7-28.7 0-15.8 12.8-28.7 28.7-28.7h155.3c15.8 0 28.7 12.8 28.7 28.7 0 15.9-12.9 28.7-28.7 28.7zM414.1 214.20000000000005H258.8c-15.8 0-28.7-12.8-28.7-28.7 0-15.8 12.8-28.7 28.7-28.7h155.3c15.8 0 28.7 12.8 28.7 28.7 0 15.9-12.9 28.7-28.7 28.7zM781.5 180.79999999999995h-53.2V230c0 15.8-12.8 28.7-28.7 28.7-15.8 0-28.7-12.8-28.7-28.7v-77.9c0-15.8 12.8-28.7 28.7-28.7h81.9c15.8 0 28.7 12.8 28.7 28.7-0.1 15.9-12.9 28.7-28.7 28.7zM710.3 373.70000000000005c-110.4 0-200.1-89.8-200.1-200.1S600-26.600000000000023 710.3-26.600000000000023s200.1 89.8 200.1 200.1-89.7 200.2-200.1 200.2z m0-343c-78.7 0-142.8 64.1-142.8 142.8s64.1 142.8 142.8 142.8 142.8-64.1 142.8-142.8S789 30.700000000000045 710.3 30.700000000000045zM424.7 692.3c15.8 0 28.7 12.8 28.7 28.7v49.3c0 15.8-12.8 28.7-28.7 28.7-15.8 0-28.7-12.8-28.7-28.7V721c0-15.8 12.8-28.7 28.7-28.7zM568 692.3c15.8 0 28.7 12.8 28.7 28.7v49.3c0 15.8-12.8 28.7-28.7 28.7-15.8 0-28.7-12.8-28.7-28.7V721c0.1-15.8 12.9-28.7 28.7-28.7z"  horiz-adv-x="1024" />

    
    <glyph glyph-name="jiekouwendang-" unicode="&#59151;" d="M747.4 482.2c0 16-13 29-29 29H258.8c-16 0-29-13-29-29s13-29 29-29h459.6c16 0 29 13 29 29zM416 349.20000000000005H258.8c-16 0-29-13-29-29s13-29 29-29H416c16 0 29 13 29 29s-12.9 29-29 29zM416 187.10000000000002H258.8c-16 0-29-13-29-29s13-29 29-29H416c16 0 29 13 29 29s-12.9 29-29 29zM899 431.8c16 0 29 13 29 29v93.6c0 42-34.2 76.2-76.2 76.2H484.4v48.7c0 42-34.2 76.2-76.2 76.2h-234c-42 0-76.2-34.2-76.2-76.2v-591.4c0-42 34.2-76.2 76.2-76.2h677.6c42 0 76.2 34.2 76.2 76.2V320.1c0 16-13 29-29 29s-29-13-29-29v-232.2c0-9.8-8.3-18.1-18.1-18.1H174.3c-9.8 0-18.1 8.3-18.1 18.1V679.4c0 9.8 8.3 18.1 18.1 18.1h234c9.8 0 18.1-8.3 18.1-18.1v-77.7c0-16 13-29 29-29h396.5c9.8 0 18.1-8.3 18.1-18.1V461c0-16.2 13-29.2 29-29.2zM569.4 697.5h261.2c16 0 29 13 29 29s-13 29-29 29H569.4c-16 0-29-13-29-29s12.9-29 29-29z"  horiz-adv-x="1024" />

    
    <glyph glyph-name="xiazaiyepeizhi-" unicode="&#59154;" d="M834.2 167.70000000000005l-83.9 83.8c-6 6.6-14.7 10.4-23.7 10.4s-17.6-3.8-23.7-10.4L619 167.70000000000005c-11.3-11.3-11.3-29.6 0-41s29.6-11.3 41 0l37.7 37.6V-3c0-16 13-29 29-29s29 13 29 29V164.39999999999998l37.7-37.6c5.7-5.6 13.1-8.5 20.5-8.5s14.8 2.8 20.5 8.5c11.1 11.3 11.1 29.6-0.2 40.9zM544.1 499.7h-207c-16 0-29-13-29-29s13-29 29-29H544c16 0 29 13 29 29 0 16.1-12.9 29-28.9 29zM544.1 333.20000000000005h-207c-16 0-29-13-29-29s13-29 29-29H544c16 0 29 13 29 29s-12.9 29-28.9 29zM549.5 25.899999999999977H235.1V740.1H612V595c0-9.7 3.8-18.8 10.6-25.6 6.8-6.8 15.9-10.6 25.6-10.6h0.1l134.1 0.2v-228.9c0-16 13-29 29-29s29 13 29 29v287h-0.1L669.9 797.9V798H235.1c-31.9 0-57.9-26-57.9-57.9v-714.2c0-31.9 26-57.9 57.9-57.9h314.4c16 0 29 13 29 29s-13 28.9-29 28.9z m211.2 591l-90.9-0.2v96.7l90.9-96.5z"  horiz-adv-x="1024" />

    
    <glyph glyph-name="tuisongpeizhi-" unicode="&#59155;" d="M634 435.7c-21 49.3-69.1 81.1-122.7 81.1-73.5 0-133.3-59.8-133.3-133.3 0-48.2 26.1-92.7 68.2-116.3 4.6-2.6 9.6-3.8 14.5-3.8 10.4 0 20.5 5.5 26 15.2 8 14.3 2.9 32.5-11.4 40.5-23.3 13.1-37.8 37.8-37.8 64.4 0 40.7 33.1 73.8 73.8 73.8 29.7 0 56.3-17.6 67.9-44.9 6.4-15.1 23.9-22.2 39-15.7 15.2 6.4 22.3 23.9 15.8 39zM408.7 26.899999999999977c-21.2 6.1-42 14.1-61.9 23.9 0 44.8-17.6 87.8-49.5 119.8-31.9 31.9-74.8 49.6-119.6 49.6h-0.2c-7.1 14.4-13.2 29.2-18.4 44.3 31.7 31.7 49.7 74.5 49.7 119.7s-17.9 88.1-49.7 119.8c5.1 15.1 11.3 29.9 18.4 44.3h0.2c44.7 0 87.6 17.6 119.6 49.5 32 32 49.6 74.9 49.5 119.8 14.4 7.1 29.2 13.2 44.3 18.4 31.7-31.7 74.5-49.7 119.7-49.7s88.1 17.9 119.7 49.7c15.1-5.1 29.9-11.3 44.3-18.4 0-44.8 17.6-87.8 49.5-119.8 31.9-31.9 74.8-49.5 119.6-49.5h0.2c9.8-19.9 17.8-40.7 23.9-61.9 4.5-15.8 21-24.9 36.8-20.4 15.8 4.5 24.9 21 20.4 36.8-8.5 29.8-20.3 58.8-35.2 86.3-7 13-21.2 20.6-36.1 19.2-32.6-2.9-64.5 8.6-87.6 31.7-23.1 23.1-34.6 55-31.7 87.6 1.3 14.9-6.2 29-19.2 36.1-25.9 14-53.2 25.3-81.2 33.7-14.3 4.3-29.6-0.4-39.2-11.9-21-25.1-51.7-39.5-84.3-39.5-32.6 0-63.4 14.4-84.3 39.5-9.6 11.5-25 16.2-39.2 11.9-28-8.4-55.3-19.7-81.2-33.7-13-7-20.6-21.2-19.3-36.1 2.9-32.6-8.6-64.5-31.7-87.5-23.1-23.1-55-34.6-87.5-31.7-14.8 1.4-29-6.2-36.1-19.2-14-25.8-25.3-53.2-33.7-81.2-4.3-14.2 0.4-29.6 11.9-39.2 25.1-21 39.5-51.7 39.5-84.3 0-32.6-14.4-63.4-39.5-84.3-11.5-9.6-16.2-25-11.9-39.2 8.4-28 19.7-55.3 33.7-81.2 7-13 21.2-20.6 36.1-19.3 32.6 2.9 64.5-8.6 87.5-31.7 23.1-23.1 34.6-55 31.7-87.5-1.3-14.9 6.2-29 19.2-36.1 27.4-14.8 56.5-26.7 86.3-35.2 2.7-0.8 5.5-1.1 8.2-1.1 12.9 0 24.9 8.5 28.6 21.6 4.7 15.5-4.5 31.9-20.3 36.4zM829.6 272.6c-11.6 11.6-30.4 11.6-42.1 0-11.6-11.6-11.6-30.4 0-42.1l38.7-38.7H654.3c-16.4 0-29.7-13.3-29.7-29.7s13.3-29.7 29.7-29.7h171.9l-38.6-38.7c-11.6-11.6-11.6-30.4 0-42.1 5.8-5.8 13.4-8.7 21-8.7s15.2 2.9 21 8.7l86.1 86.2c6.8 6.2 10.7 15.1 10.7 24.3 0 9.2-3.9 18.1-10.7 24.3l-86.1 86.2z"  horiz-adv-x="1024" />

    
    <glyph glyph-name="fasongpeisong-" unicode="&#59156;" d="M446.1 281.79999999999995c-16 0-28.9-12.9-28.9-28.9v-190.3H154.1V705.1h263.1v-189.9c0-16 12.9-28.9 28.9-28.9 16 0 28.9 12.9 28.9 28.9V726.8c0 20.2-14.6 36.1-33.3 36.1h-312c-18.7 0-33.3-15.9-33.3-36.1v-686.6c0-19.8 14.6-35.3 33.3-35.3h312c18.7 0 33.3 15.5 33.3 35.3V252.89999999999998c-0.1 16-13 28.9-28.9 28.9zM893 762.9H581c-18.7 0-33.3-15.9-33.3-36.1v-211.5c0-16 12.9-28.9 28.9-28.9 16 0 28.9 12.9 28.9 28.9V705.1h263.1v-642.5H605.5V252.89999999999998c0 16-12.9 28.9-28.9 28.9-16 0-28.9-12.9-28.9-28.9v-212.7c0-19.8 14.6-35.3 33.3-35.3h312c18.7 0 33.3 15.5 33.3 35.3V726.8c0 20.2-14.6 36.1-33.3 36.1zM335.9 383.9c0-16 12.9-28.9 28.9-28.9h262.8l-18.4-19.4c-11-11.6-10.5-29.9 1-40.8 5.6-5.3 12.7-7.9 19.9-7.9 7.6 0 15.3 3 20.9 9l62.2 65.5c6.1 5.9 9.6 14 9.6 22.6 0 8.6-3.5 16.7-9.6 22.6L651.1 472c-11 11.6-29.3 12-40.8 1-11.6-11-12-29.3-1-40.8l18.4-19.4H364.8c-16 0-28.9-13-28.9-28.9z"  horiz-adv-x="1024" />

    
    <glyph glyph-name="tuisongjilu-" unicode="&#59157;" d="M837 144l-83.8 83.9c-11.3 11.3-29.6 11.3-41 0-11.3-11.3-11.3-29.6 0-41l37.6-37.7H582.5c-16 0-29-13-29-29s13-29 29-29h167.4l-37.6-37.7c-11.3-11.3-11.3-29.7 0-41 5.7-5.6 13.1-8.5 20.5-8.5s14.8 2.8 20.5 8.5l83.8 83.9c6.6 6.1 10.4 14.7 10.4 23.7s-3.9 17.8-10.5 23.9zM543.4 499.7h-207c-16 0-29-13-29-29s13-29 29-29h206.9c16 0 29 13 29 29 0 16.1-12.9 29-28.9 29zM543.4 333.20000000000005h-207c-16 0-29-13-29-29s13-29 29-29h206.9c16 0 29 13 29 29s-12.9 29-28.9 29zM548.8 25.899999999999977H234.4V740.1h376.9V595c0-9.7 3.8-18.8 10.6-25.6 6.8-6.8 15.9-10.6 25.6-10.6h0.1l134.1 0.2v-228.9c0-16 13-29 29-29s29 13 29 29v287h-0.1L669.2 797.9V798H234.4c-31.9 0-57.9-26-57.9-57.9v-714.2c0-31.9 26-57.9 57.9-57.9h314.4c16 0 29 13 29 29s-13 28.9-29 28.9z m211.2 591l-90.9-0.2v96.7l90.9-96.5z"  horiz-adv-x="1024" />

    
    <glyph glyph-name="dibucaidan-" unicode="&#59158;" d="M157.9 478.3L437 308.70000000000005c12-7.3 25.7-11 39.4-11 12.3 0 24.6 3 35.7 8.9l346 175.6 0.7 0.4c23.8 12.9 38.6 36.7 39.7 63.7 1.1 27-11.8 51.9-34.5 66.6L573.6 787c-23.1 14.7-52.4 15.9-76.6 2.9l-335.6-180c-24.3-13-39.2-37.2-39.9-64.8-0.7-27.5 12.9-52.5 36.4-66.8z m31 80.5l335.6 180c2.6 1.4 5.5 2.1 8.4 2.1 3.4 0 6.7-1 9.7-2.9l290.1-174c7.4-5 7.9-12.4 7.8-15.4-0.1-3-1.2-10.4-9.1-14.8L485.5 358.20000000000005l-0.7-0.4c-5.5-3-12.3-2.8-17.7 0.4L188 527.9c-8 4.8-8.6 12.6-8.6 15.7 0.2 3.1 1.2 10.8 9.5 15.2zM859.6 385.4L485.4 192.29999999999995l-0.5-0.3c-5.5-3-12.3-2.8-17.9 0.5l-299 179c-13.7 8.2-31.5 3.8-39.8-10s-3.8-31.6 10-39.8L437 142.89999999999998c12-7.3 25.7-11 39.4-11 12.3 0 24.6 3 35.8 8.9l374 192.9c14.2 7.3 19.8 24.8 12.5 39.1-7.4 14.3-24.9 19.9-39.1 12.6zM859.6 222.39999999999998L485.4 29.299999999999955l-0.5-0.3c-5.5-3-12.3-2.8-17.9 0.5l-299 179c-13.7 8.2-31.5 3.8-39.8-10-8.2-13.7-3.8-31.6 10-39.8L437-20.100000000000023c12-7.3 25.7-11 39.4-11 12.3 0 24.6 3 35.8 8.9l374 192.9c14.2 7.3 19.8 24.8 12.5 39.1-7.4 14.3-24.9 19.9-39.1 12.6z"  horiz-adv-x="1024" />

    
    <glyph glyph-name="gerenzhongxincaidan-" unicode="&#59159;" d="M450.4 276.79999999999995c24.6 0 49.3 9.4 68.1 28.1 18.2 18.2 28.2 42.3 28.2 68.1 0 25.7-10 49.9-28.2 68.1-37.5 37.5-98.6 37.5-136.1 0s-37.5-98.6 0-136.1c18.7-18.8 43.4-28.2 68-28.2z m-27.2 123.4c7.5 7.5 17.3 11.2 27.2 11.2 9.8 0 19.7-3.7 27.2-11.2 7.3-7.3 11.3-16.9 11.3-27.2s-4-19.9-11.3-27.2c-15-15-39.4-15-54.4 0-14.9 15-14.9 39.4 0 54.4zM593.7 234.29999999999995H314.4c-16 0-28.9-12.9-28.9-28.9s12.9-28.9 28.9-28.9h279.2c16 0 28.9 12.9 28.9 28.9s-12.9 28.9-28.8 28.9zM657.5 680.5H244.1c-41.8 0-75.9-34-75.9-75.9v-560.9c0-41.8 34-75.9 75.9-75.9h413.4c41.8 0 75.9 34 75.9 75.9V604.6c-0.1 41.8-34.1 75.9-75.9 75.9z m18-636.8c0-9.8-8.3-18.1-18.1-18.1H244.1c-9.8 0-18.1 8.3-18.1 18.1V604.6c0 9.8 8.3 18.1 18.1 18.1h413.4c9.8 0 18.1-8.3 18.1-18.1v-560.9zM787.7 797.8H359.9c-16 0-28.9-12.9-28.9-28.9s12.9-28.9 28.9-28.9h427.8c5.9 0 10.8-5 10.8-10.8v-556.9c0-16 12.9-28.9 28.9-28.9 16 0 28.9 12.9 28.9 28.9V729.2c0.1 37.8-30.7 68.6-68.6 68.6z"  horiz-adv-x="1024" />

    
    <glyph glyph-name="gonggaoliebiao-" unicode="&#59160;" d="M864.6 299.4c16 0 29 13 29 29V435.9c0 41.2-26.6 76.3-63.5 89l-0.3 0.3-199.9 199.9c-1.4 1.4-3 2.7-4.6 3.7-18.9 41.1-60.5 69.7-108.6 69.7-50.4 0-93.6-31.4-111.2-75.7L211.9 529.3c-46.4-5.9-82.3-45.5-82.3-93.4v-373.1c0-51.9 42.3-94.2 94.2-94.2h575.6c51.9 0 94.2 42.3 94.2 94.2V204c0 16-13 29-29 29s-29-13-29-29v-141.3c0-20-16.3-36.2-36.2-36.2H223.8c-20 0-36.2 16.3-36.2 36.2V435.9c0 20 16.3 36.2 36.2 36.2h575.6c20 0 36.2-16.3 36.2-36.2v-107.5c0-16 13-29 29-29z m-347.9 260c53.2 0 98.4 34.9 113.8 83.1l112.4-112.4H294.7l109.2 109.2c16.4-46.4 60.7-79.9 112.8-79.9z m0 181.2c34 0 61.6-27.6 61.6-61.6s-27.6-61.6-61.6-61.6-61.6 27.6-61.6 61.6 27.6 61.6 61.6 61.6zM305.4 357.4h176.3c16 0 29 13 29 29s-13 29-29 29H305.4c-16 0-29-13-29-29 0.1-16 13-29 29-29zM305.4 141.20000000000005c-16 0-29-13-29-29s13-29 29-29h176.3c16 0 29 13 29 29s-13 29-29 29H305.4zM648.4 249.29999999999995c0 16-13 29-29 29h-314c-16 0-29-13-29-29s13-29 29-29h314c16 0 29 13 29 29z"  horiz-adv-x="1024" />

    
    <glyph glyph-name="fabugonggao-" unicode="&#59161;" d="M689.6 525c-13.7 8.3-31.5 4-39.9-9.7-8.3-13.7-4-31.5 9.7-39.9 32.2-19.6 51.4-53.8 51.4-91.5s-19.2-71.9-51.4-91.5c-13.7-8.3-18-26.2-9.7-39.9 5.5-9 15-13.9 24.8-13.9 5.1 0 10.4 1.4 15.1 4.2 49.6 30.2 79.3 83 79.3 141 0 58.3-29.6 111-79.3 141.2zM841.7 599.9c-11 11.7-29.3 12.3-41 1.3s-12.3-29.3-1.3-41c45-48 69.8-110.5 69.8-176.2s-24.8-128.3-69.8-176.2c-11-11.7-10.4-30 1.3-41 5.6-5.3 12.7-7.9 19.8-7.9 7.7 0 15.4 3.1 21.2 9.2 55.2 58.7 85.5 135.4 85.5 215.9 0.1 80.5-30.3 157.2-85.5 215.9zM576.1 720.3c-9.3 5.1-20.7 4.7-29.6-1.1l-252-162.1c-6.1 0-10.8 0.1-15.3 0.1-6 0.1-11.7 0.1-19.7 0.1h-67.9c-52 0-94.3-47.5-94.3-105.8v-136.8c0-58.3 42.3-105.8 94.3-105.8h91l264.6-160.6c4.6-2.8 9.8-4.2 15.1-4.2 4.9 0 9.8 1.2 14.2 3.7 9.1 5.1 14.8 14.8 14.8 25.3V694.8c-0.1 10.7-5.9 20.4-15.2 25.5z m-42.9-595.6L305.7 262.79999999999995c-4.5 2.8-9.7 4.2-15.1 4.2h-99.1c-19.7 0-36.3 21.9-36.3 47.8V451.6c0 25.9 16.6 47.8 36.3 47.8h67.9c7.8 0 13.4-0.1 19.2-0.1 6.6-0.1 13.5-0.1 24.4-0.1 5.6 0 11 1.6 15.7 4.6l214.5 137.9v-517z"  horiz-adv-x="1024" />

    
    <glyph glyph-name="zhanghaoguanli-" unicode="&#59162;" d="M589.5 442.8c45.3 45.3 45.3 119.1 0 164.4-45.3 45.3-119.1 45.3-164.4 0-45.3-45.3-45.3-119.1 0-164.4 22-22 51.2-34.1 82.2-34.1s60.2 12.1 82.2 34.1zM465.9 566.3c11.4 11.4 26.4 17.1 41.3 17.1s29.9-5.7 41.3-17.1c22.8-22.8 22.8-59.9 0-82.6-22.8-22.8-59.9-22.8-82.6 0-22.7 22.7-22.7 59.8 0 82.6zM302 307.6c0-16 12.9-28.9 28.9-28.9h362.2c16 0 28.9 12.9 28.9 28.9s-12.9 28.9-28.9 28.9H330.9c-16 0-28.9-12.9-28.9-28.9zM898.1 588.3c16 0 28.9 12.9 28.9 28.9v77.1c0 44.7-34.1 81.1-75.9 81.1H172.9C131 775.4 97 739 97 694.3V225c0-44.7 34.1-81.1 75.9-81.1h678.2c41.9 0 75.9 36.4 75.9 81.1V475.3c0 16-12.9 28.9-28.9 28.9s-28.9-12.9-28.9-28.9V225c0-12.6-8.3-23.3-18.1-23.3H172.9c-9.8 0-18.1 10.7-18.1 23.3V694.3c0 12.6 8.3 23.3 18.1 23.3h678.2c9.8 0 18.1-10.7 18.1-23.3v-77.1c-0.1-16 12.9-28.9 28.9-28.9zM701.7 49.60000000000002H322.2c-16 0-28.9-12.9-28.9-28.9s12.9-28.9 28.9-28.9h379.5c16 0 28.9 12.9 28.9 28.9s-12.9 28.9-28.9 28.9z"  horiz-adv-x="1024" />

    
    <glyph glyph-name="duanxinmoban-" unicode="&#59165;" d="M868.7 745.8H345.5c-16 0-29-13-29-29s13-29 29-29h523.2c0.9 0 1.7-0.8 1.7-1.7V336c0-16 13-29 29-29s29 13 29 29V686c0 33-26.8 59.8-59.7 59.8zM774.3 647.1H152.6c-29.9 0-54.2-24.3-54.2-54.2v-401.6c0-29.9 24.3-54.2 54.2-54.2h107.2c16 0 29 13 29 29s-13 29-29 29H156.4V589h614v-393.9H432.8l-85.4-128.6c-8.9-13.3-5.2-31.3 8.1-40.2 4.9-3.3 10.5-4.8 16-4.8 9.4 0 18.6 4.6 24.2 13l68.2 102.6h310.4c29.9 0 54.2 24.3 54.2 54.2V592.9c0 29.9-24.3 54.2-54.2 54.2zM257.2 431.2h222.6c16 0 29 13 29 29s-13 29-29 29H257.2c-16 0-29-13-29-29s13-29 29-29zM257.2 287.79999999999995h412.4c16 0 29 13 29 29s-13 29-29 29H257.2c-16 0-29-13-29-29 0-16.1 13-29 29-29z"  horiz-adv-x="1024" />

    
    <glyph glyph-name="duanxintongji-" unicode="&#59166;" d="M870.4 738.9H156c-31.9 0-57.8-25.9-57.8-57.8v-461.5c0-31.9 25.9-57.8 57.8-57.8h123.1c16 0 28.9 12.9 28.9 28.9s-12.9 28.9-28.9 28.9H156V681.1h714.4v-461.5h-390l-96.8-145.7c-8.8-13.3-5.2-31.2 8.1-40.1 4.9-3.3 10.5-4.8 16-4.8 9.4 0 18.5 4.5 24.1 12.9l79.6 119.9h359c31.9 0 57.8 25.9 57.8 57.8V681.1c0 31.8-26 57.8-57.8 57.8zM373.8 442.1c11.5-7.7 25.3-12.2 40.1-12.2 20.5 0 39.1 8.7 52.2 22.5l64.1-39.3c-0.2-2.1-0.3-4.1-0.3-6.2 0-39.7 32.3-72 72-72s72 32.3 72 72c0 0.5-0.1 1-0.1 1.5l61.8 59.3c7.9-3 16.5-4.7 25.4-4.7 39.7 0 72 32.3 72 72s-32.3 72-72 72-72-32.3-72-72c0-9.5 1.9-18.5 5.2-26.9L647 462.8c-12.4 10-28.1 16-45.2 16-16.5 0-31.7-5.6-43.9-15l-72.4 44.4c-3.2 36.7-34.1 65.6-71.7 65.6-39.7 0-72-32.3-72-72 0-3.5 0.3-7 0.8-10.4l-54.3-45.7c-7.3 2.5-15.1 3.9-23.2 3.9-39.7 0-72-32.3-72-72s32.3-72 72-72 72 32.3 72 72c0 10.2-2.2 19.9-6 28.7l42.7 35.8zM761 549.2c7.8 0 14.2-6.4 14.2-14.2 0-7.8-6.4-14.2-14.2-14.2s-14.2 6.4-14.2 14.2c0 7.9 6.4 14.2 14.2 14.2zM601.9 421.1c7.8 0 14.2-6.4 14.2-14.2 0-7.8-6.4-14.2-14.2-14.2s-14.2 6.4-14.2 14.2c0 7.8 6.3 14.2 14.2 14.2z m-188 95c7.8 0 14.2-6.4 14.2-14.2 0-7.8-6.4-14.2-14.2-14.2-7.8 0-14.2 6.4-14.2 14.2 0 7.8 6.4 14.2 14.2 14.2zM265.3 363.4c-7.8 0-14.2 6.4-14.2 14.2 0 7.8 6.4 14.2 14.2 14.2 7.8 0 14.2-6.4 14.2-14.2 0-7.8-6.4-14.2-14.2-14.2z"  horiz-adv-x="1024" />

    
    <glyph glyph-name="houtaicaozuorizhi-" unicode="&#59167;" d="M624.2 64.70000000000005H404.6c-16 0-29-13-29-29s13-29 29-29h219.6c16 0 29 13 29 29s-13 29-29 29zM869.5 761.7h-50.8c-16 0-29-13-29-29s13-29 29-29h50.8V193H155.7V703.6h518c16 0 29 13 29 29s-13 29-29 29h-518c-32 0-58.1-26-58.1-58.1v-510.7c0-32 26-58.1 58.1-58.1h713.9c32 0 58.1 26 58.1 58.1V703.6c-0.1 32-26.1 58.1-58.2 58.1zM227.8 595.9H275v-58.1h-47.2zM347.5 595.9h58.1v-58.1h-58.1zM478.1 595.9h58.1v-58.1h-58.1zM608.8 595.9H656v-58.1h-47.2zM728.5 595.9h58.1v-58.1h-58.1zM231.4 438.7c0-16 13-29 29-29h116.1c16 0 29 13 29 29s-13 29-29 29H260.4c-16 0-29-13-29-29zM260.4 281.20000000000005h497.1c16 0 29 13 29 29s-13 29-29 29H260.4c-16 0-29-13-29-29s13-29 29-29z"  horiz-adv-x="1024" />

    
    <glyph glyph-name="yonghufengxiancaozuorizhi-" unicode="&#59168;" d="M824.4 373.9c-16 0-28.9-12.9-28.9-28.9v-316.2c-1.1-0.8-3.5-1.8-6.8-1.8H236.2c-3.3 0-5.7 1-6.8 1.8V741.3h440.5c16 0 28.9 12.9 28.9 28.9s-12.9 28.9-28.9 28.9H207.7c-19.9 0-36.1-16.2-36.1-36.1v-736c0-31.9 29-57.8 64.7-57.8h552.5c35.6 0 64.7 25.9 64.7 57.8V345c-0.2 15.9-13.1 28.9-29.1 28.9zM663.7 702.8l-146.1-61.1c-11.8-4.8-19.6-16.2-19.9-28.8-0.1-2.6-1.5-65 21.1-134.7C546 394.3 596.7 335 665.6 306.6c3.9-1.6 8-2.4 12.2-2.4 3.8 0 7.6 0.7 11.3 2 12 4.5 54.2 22.7 92.8 68.4 50.7 60 74.7 140.6 71.1 239.6-0.5 12.6-8.3 23.8-19.8 28.5L688 702.8c-7.9 3.2-16.5 3.2-24.3 0zM678 364.4c-103.8 50.2-119.7 184-122.1 230.6L676 645.2l119.6-49.5c0-159.9-87.1-216.4-117.6-231.3zM646.6 572.2v-21.7h-21.7c-16 0-28.9-12.9-28.9-28.9 0-16 12.9-28.9 28.9-28.9h21.7V471c0-16 12.9-28.9 28.9-28.9 16 0 28.9 12.9 28.9 28.9v21.7h21.7c16 0 28.9 12.9 28.9 28.9 0 16-12.9 28.9-28.9 28.9h-21.7v21.7c0 16-12.9 28.9-28.9 28.9-16 0.1-28.9-12.9-28.9-28.9zM332.1 321.4h146.3c16 0 28.9 12.9 28.9 28.9s-12.9 28.9-28.9 28.9H332.1c-16 0-28.9-12.9-28.9-28.9s12.9-28.9 28.9-28.9zM332.1 487.3h74.1c16 0 28.9 12.9 28.9 28.9 0 16-12.9 28.9-28.9 28.9h-74.1c-16 0-28.9-12.9-28.9-28.9 0-15.9 12.9-28.9 28.9-28.9zM332.1 155.5h359.6c16 0 28.9 12.9 28.9 28.9s-12.9 28.9-28.9 28.9H332.1c-16 0-28.9-12.9-28.9-28.9s12.9-28.9 28.9-28.9z"  horiz-adv-x="1024" />

    
    </font>
</defs>
</svg>
